%TF.GenerationSoftware,KiCad,Pcbnew,(6.0.2)*%
%TF.CreationDate,2022-03-17T13:29:54+09:00*%
%TF.ProjectId,KiCad,4b694361-642e-46b6-9963-61645f706362,rev?*%
%TF.SameCoordinates,Original*%
%TF.FileFunction,Soldermask,Bot*%
%TF.FilePolarity,Negative*%
%FSLAX46Y46*%
G04 Gerber Fmt 4.6, Leading zero omitted, Abs format (unit mm)*
G04 Created by KiCad (PCBNEW (6.0.2)) date 2022-03-17 13:29:54*
%MOMM*%
%LPD*%
G01*
G04 APERTURE LIST*
G04 Aperture macros list*
%AMRoundRect*
0 Rectangle with rounded corners*
0 $1 Rounding radius*
0 $2 $3 $4 $5 $6 $7 $8 $9 X,Y pos of 4 corners*
0 Add a 4 corners polygon primitive as box body*
4,1,4,$2,$3,$4,$5,$6,$7,$8,$9,$2,$3,0*
0 Add four circle primitives for the rounded corners*
1,1,$1+$1,$2,$3*
1,1,$1+$1,$4,$5*
1,1,$1+$1,$6,$7*
1,1,$1+$1,$8,$9*
0 Add four rect primitives between the rounded corners*
20,1,$1+$1,$2,$3,$4,$5,0*
20,1,$1+$1,$4,$5,$6,$7,0*
20,1,$1+$1,$6,$7,$8,$9,0*
20,1,$1+$1,$8,$9,$2,$3,0*%
G04 Aperture macros list end*
%ADD10C,1.500000*%
%ADD11C,1.600000*%
%ADD12O,1.600000X1.600000*%
%ADD13O,2.400000X1.600000*%
%ADD14R,2.400000X1.600000*%
%ADD15RoundRect,0.275000X0.275000X0.625000X-0.275000X0.625000X-0.275000X-0.625000X0.275000X-0.625000X0*%
%ADD16R,1.100000X1.800000*%
%ADD17C,3.200000*%
%ADD18R,1.700000X1.700000*%
%ADD19O,1.700000X1.700000*%
%ADD20O,2.500000X3.500000*%
%ADD21O,3.500000X2.500000*%
G04 APERTURE END LIST*
D10*
%TO.C,*%
X160020000Y-114300000D03*
%TD*%
%TO.C,*%
X162560000Y-114300000D03*
%TD*%
%TO.C,*%
X147320000Y-114300000D03*
%TD*%
%TO.C,*%
X152400000Y-114300000D03*
%TD*%
%TO.C,*%
X149860000Y-114300000D03*
%TD*%
%TO.C,*%
X144780000Y-114300000D03*
%TD*%
%TO.C,*%
X157480000Y-114300000D03*
%TD*%
%TO.C,*%
X154940000Y-114300000D03*
%TD*%
%TO.C,*%
X134620000Y-114300000D03*
%TD*%
%TO.C,*%
X142240000Y-114300000D03*
%TD*%
%TO.C,*%
X139700000Y-114300000D03*
%TD*%
%TO.C,*%
X137160000Y-114300000D03*
%TD*%
%TO.C,*%
X132080000Y-114300000D03*
%TD*%
%TO.C,*%
X129540000Y-114300000D03*
%TD*%
D11*
%TO.C,R2*%
X153990000Y-106400000D03*
D12*
X161610000Y-106400000D03*
%TD*%
D13*
%TO.C,U2*%
X129545000Y-108975000D03*
X129545000Y-106435000D03*
X129545000Y-103895000D03*
X129545000Y-101355000D03*
X129545000Y-98815000D03*
X129545000Y-96275000D03*
X129545000Y-93735000D03*
X129545000Y-91195000D03*
X129545000Y-88655000D03*
X129545000Y-86115000D03*
X129545000Y-83575000D03*
X129545000Y-81035000D03*
X144785000Y-81035000D03*
X144785000Y-83575000D03*
X144785000Y-86115000D03*
X144785000Y-88655000D03*
X144785000Y-91195000D03*
X144785000Y-93735000D03*
X144785000Y-96275000D03*
X144785000Y-98815000D03*
X144785000Y-101355000D03*
X144785000Y-103895000D03*
X144785000Y-106435000D03*
D14*
X144785000Y-108975000D03*
%TD*%
D10*
%TO.C,*%
X175260000Y-106680000D03*
%TD*%
%TO.C,*%
X180340000Y-106680000D03*
%TD*%
%TO.C,*%
X177800000Y-106680000D03*
%TD*%
%TO.C,*%
X172720000Y-106680000D03*
%TD*%
%TO.C,*%
X182880000Y-106680000D03*
%TD*%
%TO.C,*%
X182880000Y-109220000D03*
%TD*%
%TO.C,*%
X172720000Y-109220000D03*
%TD*%
%TO.C,*%
X177800000Y-109220000D03*
%TD*%
%TO.C,*%
X180340000Y-109220000D03*
%TD*%
%TO.C,*%
X175260000Y-109220000D03*
%TD*%
%TO.C,*%
X165100000Y-114300000D03*
%TD*%
%TO.C,*%
X182880000Y-114300000D03*
%TD*%
%TO.C,*%
X182880000Y-111760000D03*
%TD*%
%TO.C,*%
X182880000Y-119380000D03*
%TD*%
%TO.C,*%
X182880000Y-116840000D03*
%TD*%
%TO.C,*%
X182880000Y-121920000D03*
%TD*%
%TO.C,*%
X172720000Y-121920000D03*
%TD*%
%TO.C,*%
X175260000Y-121920000D03*
%TD*%
%TO.C,*%
X167640000Y-121920000D03*
%TD*%
%TO.C,*%
X180340000Y-121920000D03*
%TD*%
%TO.C,*%
X165100000Y-121920000D03*
%TD*%
%TO.C,*%
X162560000Y-121920000D03*
%TD*%
%TO.C,*%
X157480000Y-121920000D03*
%TD*%
%TO.C,*%
X170180000Y-121920000D03*
%TD*%
%TO.C,*%
X177800000Y-121920000D03*
%TD*%
%TO.C,*%
X147320000Y-121920000D03*
%TD*%
%TO.C,*%
X160020000Y-121920000D03*
%TD*%
%TO.C,*%
X149860000Y-121920000D03*
%TD*%
%TO.C,*%
X144780000Y-121920000D03*
%TD*%
%TO.C,*%
X139700000Y-121920000D03*
%TD*%
%TO.C,*%
X137160000Y-121920000D03*
%TD*%
%TO.C,*%
X134620000Y-121920000D03*
%TD*%
%TO.C,*%
X152400000Y-121920000D03*
%TD*%
%TO.C,*%
X132080000Y-121920000D03*
%TD*%
%TO.C,*%
X142240000Y-121920000D03*
%TD*%
%TO.C,*%
X154940000Y-121920000D03*
%TD*%
%TO.C,*%
X129540000Y-121920000D03*
%TD*%
%TO.C,*%
X129540000Y-119380000D03*
%TD*%
%TO.C,*%
X129540000Y-116840000D03*
%TD*%
%TO.C,*%
X172720000Y-114300000D03*
%TD*%
%TO.C,*%
X175260000Y-114300000D03*
%TD*%
%TO.C,*%
X172720000Y-111760000D03*
%TD*%
%TO.C,*%
X177800000Y-111760000D03*
%TD*%
%TO.C,*%
X167640000Y-114300000D03*
%TD*%
%TO.C,*%
X180340000Y-114300000D03*
%TD*%
%TO.C,*%
X175260000Y-111760000D03*
%TD*%
%TO.C,*%
X170180000Y-114300000D03*
%TD*%
%TO.C,*%
X177800000Y-114300000D03*
%TD*%
%TO.C,*%
X180340000Y-111760000D03*
%TD*%
%TO.C,*%
X172720000Y-119380000D03*
%TD*%
%TO.C,*%
X175260000Y-119380000D03*
%TD*%
%TO.C,*%
X170180000Y-119380000D03*
%TD*%
%TO.C,*%
X172720000Y-116840000D03*
%TD*%
%TO.C,*%
X177800000Y-116840000D03*
%TD*%
%TO.C,*%
X165100000Y-119380000D03*
%TD*%
%TO.C,*%
X162560000Y-119380000D03*
%TD*%
%TO.C,*%
X160020000Y-119380000D03*
%TD*%
%TO.C,*%
X175260000Y-116840000D03*
%TD*%
%TO.C,*%
X170180000Y-116840000D03*
%TD*%
%TO.C,*%
X177800000Y-119380000D03*
%TD*%
%TO.C,*%
X157480000Y-119380000D03*
%TD*%
%TO.C,*%
X167640000Y-119380000D03*
%TD*%
%TO.C,*%
X180340000Y-119380000D03*
%TD*%
%TO.C,*%
X180340000Y-116840000D03*
%TD*%
%TO.C,*%
X160020000Y-116840000D03*
%TD*%
%TO.C,*%
X167640000Y-116840000D03*
%TD*%
%TO.C,*%
X165100000Y-116840000D03*
%TD*%
%TO.C,*%
X162560000Y-116840000D03*
%TD*%
%TO.C,*%
X157480000Y-116840000D03*
%TD*%
%TO.C,*%
X152400000Y-119380000D03*
%TD*%
%TO.C,*%
X149860000Y-119380000D03*
%TD*%
%TO.C,*%
X147320000Y-119380000D03*
%TD*%
%TO.C,*%
X144780000Y-119380000D03*
%TD*%
%TO.C,*%
X154940000Y-119380000D03*
%TD*%
%TO.C,*%
X147320000Y-116840000D03*
%TD*%
%TO.C,*%
X154940000Y-116840000D03*
%TD*%
%TO.C,*%
X152400000Y-116840000D03*
%TD*%
%TO.C,*%
X149860000Y-116840000D03*
%TD*%
%TO.C,*%
X144780000Y-116840000D03*
%TD*%
%TO.C,*%
X134620000Y-119380000D03*
%TD*%
%TO.C,*%
X142240000Y-119380000D03*
%TD*%
%TO.C,*%
X139700000Y-119380000D03*
%TD*%
%TO.C,*%
X137160000Y-119380000D03*
%TD*%
%TO.C,*%
X132080000Y-119380000D03*
%TD*%
%TO.C,*%
X142240000Y-116840000D03*
%TD*%
%TO.C,*%
X139700000Y-116840000D03*
%TD*%
%TO.C,*%
X137160000Y-116840000D03*
%TD*%
%TO.C,*%
X134620000Y-116840000D03*
%TD*%
%TO.C,*%
X132080000Y-116840000D03*
%TD*%
D15*
%TO.C,Q1*%
X166060000Y-108000000D03*
X167330000Y-110070000D03*
D16*
X168600000Y-108000000D03*
%TD*%
D17*
%TO.C,H4*%
X189000000Y-123000000D03*
%TD*%
%TO.C,H3*%
X123000000Y-123000000D03*
%TD*%
%TO.C,H2*%
X189000000Y-82000000D03*
%TD*%
%TO.C,H1*%
X123000000Y-82000000D03*
%TD*%
D13*
%TO.C,U1*%
X173620000Y-99125000D03*
X173620000Y-101665000D03*
X166000000Y-101665000D03*
D14*
X166000000Y-99125000D03*
%TD*%
D12*
%TO.C,R1*%
X161610000Y-99200000D03*
D11*
X153990000Y-99200000D03*
%TD*%
D18*
%TO.C,JP1*%
X150800000Y-103775000D03*
D19*
X150800000Y-106315000D03*
X150800000Y-108855000D03*
%TD*%
D20*
%TO.C,J2*%
X179800000Y-89150000D03*
D21*
X174750000Y-81350000D03*
D20*
X170200000Y-84650000D03*
%TD*%
%TO.C,J1*%
X162800000Y-89150000D03*
D21*
X157750000Y-81350000D03*
D20*
X153200000Y-84650000D03*
%TD*%
M02*
