%FSLAX45Y45*%
G04 Gerber Fmt 4.5, Leading zero omitted, Abs format (unit mm)*
G04 Created by KiCad (PCBNEW (6.0.2)) date 2022-03-17 13:32:33*
%MOMM*%
%LPD*%
G01*
G04 APERTURE LIST*
%TA.AperFunction,Profile*%
%ADD10C,0.100000*%
%TD*%
%ADD11C,0.200000*%
%ADD12C,0.070000*%
%ADD13C,0.075000*%
%ADD14C,0.080000*%
%ADD15C,0.100000*%
G04 APERTURE END LIST*
D10*
X12200000Y-12600000D02*
X19000000Y-12600000D01*
X12200000Y-7900000D02*
G75*
G03*
X12000000Y-8100000I0J-200000D01*
G01*
X12200000Y-7900000D02*
X19000000Y-7900000D01*
X19200000Y-8100000D02*
G75*
G03*
X19000000Y-7900000I-200000J0D01*
G01*
X12000000Y-12400000D02*
X12000000Y-8100000D01*
X12000000Y-12400000D02*
G75*
G03*
X12200000Y-12600000I200000J0D01*
G01*
X19000000Y-12600000D02*
G75*
G03*
X19200000Y-12400000I0J200000D01*
G01*
X19200000Y-8100000D02*
X19200000Y-12400000D01*
D11*
D12*
X12919000Y-11395000D02*
X12989000Y-11465000D01*
X12989000Y-11395000D02*
X12919000Y-11465000D01*
X12919000Y-11649000D02*
X12989000Y-11719000D01*
X12989000Y-11649000D02*
X12919000Y-11719000D01*
X12919000Y-11903000D02*
X12989000Y-11973000D01*
X12989000Y-11903000D02*
X12919000Y-11973000D01*
X12919000Y-12157000D02*
X12989000Y-12227000D01*
X12989000Y-12157000D02*
X12919000Y-12227000D01*
X13173000Y-11395000D02*
X13243000Y-11465000D01*
X13243000Y-11395000D02*
X13173000Y-11465000D01*
X13173000Y-11649000D02*
X13243000Y-11719000D01*
X13243000Y-11649000D02*
X13173000Y-11719000D01*
X13173000Y-11903000D02*
X13243000Y-11973000D01*
X13243000Y-11903000D02*
X13173000Y-11973000D01*
X13173000Y-12157000D02*
X13243000Y-12227000D01*
X13243000Y-12157000D02*
X13173000Y-12227000D01*
X13427000Y-11395000D02*
X13497000Y-11465000D01*
X13497000Y-11395000D02*
X13427000Y-11465000D01*
X13427000Y-11649000D02*
X13497000Y-11719000D01*
X13497000Y-11649000D02*
X13427000Y-11719000D01*
X13427000Y-11903000D02*
X13497000Y-11973000D01*
X13497000Y-11903000D02*
X13427000Y-11973000D01*
X13427000Y-12157000D02*
X13497000Y-12227000D01*
X13497000Y-12157000D02*
X13427000Y-12227000D01*
X13681000Y-11395000D02*
X13751000Y-11465000D01*
X13751000Y-11395000D02*
X13681000Y-11465000D01*
X13681000Y-11649000D02*
X13751000Y-11719000D01*
X13751000Y-11649000D02*
X13681000Y-11719000D01*
X13681000Y-11903000D02*
X13751000Y-11973000D01*
X13751000Y-11903000D02*
X13681000Y-11973000D01*
X13681000Y-12157000D02*
X13751000Y-12227000D01*
X13751000Y-12157000D02*
X13681000Y-12227000D01*
X13935000Y-11395000D02*
X14005000Y-11465000D01*
X14005000Y-11395000D02*
X13935000Y-11465000D01*
X13935000Y-11649000D02*
X14005000Y-11719000D01*
X14005000Y-11649000D02*
X13935000Y-11719000D01*
X13935000Y-11903000D02*
X14005000Y-11973000D01*
X14005000Y-11903000D02*
X13935000Y-11973000D01*
X13935000Y-12157000D02*
X14005000Y-12227000D01*
X14005000Y-12157000D02*
X13935000Y-12227000D01*
X14189000Y-11395000D02*
X14259000Y-11465000D01*
X14259000Y-11395000D02*
X14189000Y-11465000D01*
X14189000Y-11649000D02*
X14259000Y-11719000D01*
X14259000Y-11649000D02*
X14189000Y-11719000D01*
X14189000Y-11903000D02*
X14259000Y-11973000D01*
X14259000Y-11903000D02*
X14189000Y-11973000D01*
X14189000Y-12157000D02*
X14259000Y-12227000D01*
X14259000Y-12157000D02*
X14189000Y-12227000D01*
X14443000Y-11395000D02*
X14513000Y-11465000D01*
X14513000Y-11395000D02*
X14443000Y-11465000D01*
X14443000Y-11649000D02*
X14513000Y-11719000D01*
X14513000Y-11649000D02*
X14443000Y-11719000D01*
X14443000Y-11903000D02*
X14513000Y-11973000D01*
X14513000Y-11903000D02*
X14443000Y-11973000D01*
X14443000Y-12157000D02*
X14513000Y-12227000D01*
X14513000Y-12157000D02*
X14443000Y-12227000D01*
X14697000Y-11395000D02*
X14767000Y-11465000D01*
X14767000Y-11395000D02*
X14697000Y-11465000D01*
X14697000Y-11649000D02*
X14767000Y-11719000D01*
X14767000Y-11649000D02*
X14697000Y-11719000D01*
X14697000Y-11903000D02*
X14767000Y-11973000D01*
X14767000Y-11903000D02*
X14697000Y-11973000D01*
X14697000Y-12157000D02*
X14767000Y-12227000D01*
X14767000Y-12157000D02*
X14697000Y-12227000D01*
X14951000Y-11395000D02*
X15021000Y-11465000D01*
X15021000Y-11395000D02*
X14951000Y-11465000D01*
X14951000Y-11649000D02*
X15021000Y-11719000D01*
X15021000Y-11649000D02*
X14951000Y-11719000D01*
X14951000Y-11903000D02*
X15021000Y-11973000D01*
X15021000Y-11903000D02*
X14951000Y-11973000D01*
X14951000Y-12157000D02*
X15021000Y-12227000D01*
X15021000Y-12157000D02*
X14951000Y-12227000D01*
X15205000Y-11395000D02*
X15275000Y-11465000D01*
X15275000Y-11395000D02*
X15205000Y-11465000D01*
X15205000Y-11649000D02*
X15275000Y-11719000D01*
X15275000Y-11649000D02*
X15205000Y-11719000D01*
X15205000Y-11903000D02*
X15275000Y-11973000D01*
X15275000Y-11903000D02*
X15205000Y-11973000D01*
X15205000Y-12157000D02*
X15275000Y-12227000D01*
X15275000Y-12157000D02*
X15205000Y-12227000D01*
X15459000Y-11395000D02*
X15529000Y-11465000D01*
X15529000Y-11395000D02*
X15459000Y-11465000D01*
X15459000Y-11649000D02*
X15529000Y-11719000D01*
X15529000Y-11649000D02*
X15459000Y-11719000D01*
X15459000Y-11903000D02*
X15529000Y-11973000D01*
X15529000Y-11903000D02*
X15459000Y-11973000D01*
X15459000Y-12157000D02*
X15529000Y-12227000D01*
X15529000Y-12157000D02*
X15459000Y-12227000D01*
X15713000Y-11395000D02*
X15783000Y-11465000D01*
X15783000Y-11395000D02*
X15713000Y-11465000D01*
X15713000Y-11649000D02*
X15783000Y-11719000D01*
X15783000Y-11649000D02*
X15713000Y-11719000D01*
X15713000Y-11903000D02*
X15783000Y-11973000D01*
X15783000Y-11903000D02*
X15713000Y-11973000D01*
X15713000Y-12157000D02*
X15783000Y-12227000D01*
X15783000Y-12157000D02*
X15713000Y-12227000D01*
X15967000Y-11395000D02*
X16037000Y-11465000D01*
X16037000Y-11395000D02*
X15967000Y-11465000D01*
X15967000Y-11649000D02*
X16037000Y-11719000D01*
X16037000Y-11649000D02*
X15967000Y-11719000D01*
X15967000Y-11903000D02*
X16037000Y-11973000D01*
X16037000Y-11903000D02*
X15967000Y-11973000D01*
X15967000Y-12157000D02*
X16037000Y-12227000D01*
X16037000Y-12157000D02*
X15967000Y-12227000D01*
X16221000Y-11395000D02*
X16291000Y-11465000D01*
X16291000Y-11395000D02*
X16221000Y-11465000D01*
X16221000Y-11649000D02*
X16291000Y-11719000D01*
X16291000Y-11649000D02*
X16221000Y-11719000D01*
X16221000Y-11903000D02*
X16291000Y-11973000D01*
X16291000Y-11903000D02*
X16221000Y-11973000D01*
X16221000Y-12157000D02*
X16291000Y-12227000D01*
X16291000Y-12157000D02*
X16221000Y-12227000D01*
X16475000Y-11395000D02*
X16545000Y-11465000D01*
X16545000Y-11395000D02*
X16475000Y-11465000D01*
X16475000Y-11649000D02*
X16545000Y-11719000D01*
X16545000Y-11649000D02*
X16475000Y-11719000D01*
X16475000Y-11903000D02*
X16545000Y-11973000D01*
X16545000Y-11903000D02*
X16475000Y-11973000D01*
X16475000Y-12157000D02*
X16545000Y-12227000D01*
X16545000Y-12157000D02*
X16475000Y-12227000D01*
X16729000Y-11395000D02*
X16799000Y-11465000D01*
X16799000Y-11395000D02*
X16729000Y-11465000D01*
X16729000Y-11649000D02*
X16799000Y-11719000D01*
X16799000Y-11649000D02*
X16729000Y-11719000D01*
X16729000Y-11903000D02*
X16799000Y-11973000D01*
X16799000Y-11903000D02*
X16729000Y-11973000D01*
X16729000Y-12157000D02*
X16799000Y-12227000D01*
X16799000Y-12157000D02*
X16729000Y-12227000D01*
X16983000Y-11395000D02*
X17053000Y-11465000D01*
X17053000Y-11395000D02*
X16983000Y-11465000D01*
X16983000Y-11649000D02*
X17053000Y-11719000D01*
X17053000Y-11649000D02*
X16983000Y-11719000D01*
X16983000Y-11903000D02*
X17053000Y-11973000D01*
X17053000Y-11903000D02*
X16983000Y-11973000D01*
X16983000Y-12157000D02*
X17053000Y-12227000D01*
X17053000Y-12157000D02*
X16983000Y-12227000D01*
X17237000Y-10633000D02*
X17307000Y-10703000D01*
X17307000Y-10633000D02*
X17237000Y-10703000D01*
X17237000Y-10887000D02*
X17307000Y-10957000D01*
X17307000Y-10887000D02*
X17237000Y-10957000D01*
X17237000Y-11141000D02*
X17307000Y-11211000D01*
X17307000Y-11141000D02*
X17237000Y-11211000D01*
X17237000Y-11395000D02*
X17307000Y-11465000D01*
X17307000Y-11395000D02*
X17237000Y-11465000D01*
X17237000Y-11649000D02*
X17307000Y-11719000D01*
X17307000Y-11649000D02*
X17237000Y-11719000D01*
X17237000Y-11903000D02*
X17307000Y-11973000D01*
X17307000Y-11903000D02*
X17237000Y-11973000D01*
X17237000Y-12157000D02*
X17307000Y-12227000D01*
X17307000Y-12157000D02*
X17237000Y-12227000D01*
X17491000Y-10633000D02*
X17561000Y-10703000D01*
X17561000Y-10633000D02*
X17491000Y-10703000D01*
X17491000Y-10887000D02*
X17561000Y-10957000D01*
X17561000Y-10887000D02*
X17491000Y-10957000D01*
X17491000Y-11141000D02*
X17561000Y-11211000D01*
X17561000Y-11141000D02*
X17491000Y-11211000D01*
X17491000Y-11395000D02*
X17561000Y-11465000D01*
X17561000Y-11395000D02*
X17491000Y-11465000D01*
X17491000Y-11649000D02*
X17561000Y-11719000D01*
X17561000Y-11649000D02*
X17491000Y-11719000D01*
X17491000Y-11903000D02*
X17561000Y-11973000D01*
X17561000Y-11903000D02*
X17491000Y-11973000D01*
X17491000Y-12157000D02*
X17561000Y-12227000D01*
X17561000Y-12157000D02*
X17491000Y-12227000D01*
X17745000Y-10633000D02*
X17815000Y-10703000D01*
X17815000Y-10633000D02*
X17745000Y-10703000D01*
X17745000Y-10887000D02*
X17815000Y-10957000D01*
X17815000Y-10887000D02*
X17745000Y-10957000D01*
X17745000Y-11141000D02*
X17815000Y-11211000D01*
X17815000Y-11141000D02*
X17745000Y-11211000D01*
X17745000Y-11395000D02*
X17815000Y-11465000D01*
X17815000Y-11395000D02*
X17745000Y-11465000D01*
X17745000Y-11649000D02*
X17815000Y-11719000D01*
X17815000Y-11649000D02*
X17745000Y-11719000D01*
X17745000Y-11903000D02*
X17815000Y-11973000D01*
X17815000Y-11903000D02*
X17745000Y-11973000D01*
X17745000Y-12157000D02*
X17815000Y-12227000D01*
X17815000Y-12157000D02*
X17745000Y-12227000D01*
X17999000Y-10633000D02*
X18069000Y-10703000D01*
X18069000Y-10633000D02*
X17999000Y-10703000D01*
X17999000Y-10887000D02*
X18069000Y-10957000D01*
X18069000Y-10887000D02*
X17999000Y-10957000D01*
X17999000Y-11141000D02*
X18069000Y-11211000D01*
X18069000Y-11141000D02*
X17999000Y-11211000D01*
X17999000Y-11395000D02*
X18069000Y-11465000D01*
X18069000Y-11395000D02*
X17999000Y-11465000D01*
X17999000Y-11649000D02*
X18069000Y-11719000D01*
X18069000Y-11649000D02*
X17999000Y-11719000D01*
X17999000Y-11903000D02*
X18069000Y-11973000D01*
X18069000Y-11903000D02*
X17999000Y-11973000D01*
X17999000Y-12157000D02*
X18069000Y-12227000D01*
X18069000Y-12157000D02*
X17999000Y-12227000D01*
X18253000Y-10633000D02*
X18323000Y-10703000D01*
X18323000Y-10633000D02*
X18253000Y-10703000D01*
X18253000Y-10887000D02*
X18323000Y-10957000D01*
X18323000Y-10887000D02*
X18253000Y-10957000D01*
X18253000Y-11141000D02*
X18323000Y-11211000D01*
X18323000Y-11141000D02*
X18253000Y-11211000D01*
X18253000Y-11395000D02*
X18323000Y-11465000D01*
X18323000Y-11395000D02*
X18253000Y-11465000D01*
X18253000Y-11649000D02*
X18323000Y-11719000D01*
X18323000Y-11649000D02*
X18253000Y-11719000D01*
X18253000Y-11903000D02*
X18323000Y-11973000D01*
X18323000Y-11903000D02*
X18253000Y-11973000D01*
X18253000Y-12157000D02*
X18323000Y-12227000D01*
X18323000Y-12157000D02*
X18253000Y-12227000D01*
D13*
X16643500Y-10840000D02*
G75*
G03*
X16643500Y-10840000I-37500J0D01*
G01*
X16770500Y-10967000D02*
G75*
G03*
X16770500Y-10967000I-37500J0D01*
G01*
X16897500Y-10840000D02*
G75*
G03*
X16897500Y-10840000I-37500J0D01*
G01*
D14*
X12954500Y-8063500D02*
X12954500Y-8143500D01*
X12914500Y-8103500D02*
X12994500Y-8103500D01*
X12954500Y-8317500D02*
X12954500Y-8397500D01*
X12914500Y-8357500D02*
X12994500Y-8357500D01*
X12954500Y-8571500D02*
X12954500Y-8651500D01*
X12914500Y-8611500D02*
X12994500Y-8611500D01*
X12954500Y-8825500D02*
X12954500Y-8905500D01*
X12914500Y-8865500D02*
X12994500Y-8865500D01*
X12954500Y-9079500D02*
X12954500Y-9159500D01*
X12914500Y-9119500D02*
X12994500Y-9119500D01*
X12954500Y-9333500D02*
X12954500Y-9413500D01*
X12914500Y-9373500D02*
X12994500Y-9373500D01*
X12954500Y-9587500D02*
X12954500Y-9667500D01*
X12914500Y-9627500D02*
X12994500Y-9627500D01*
X12954500Y-9841500D02*
X12954500Y-9921500D01*
X12914500Y-9881500D02*
X12994500Y-9881500D01*
X12954500Y-10095500D02*
X12954500Y-10175500D01*
X12914500Y-10135500D02*
X12994500Y-10135500D01*
X12954500Y-10349500D02*
X12954500Y-10429500D01*
X12914500Y-10389500D02*
X12994500Y-10389500D01*
X12954500Y-10603500D02*
X12954500Y-10683500D01*
X12914500Y-10643500D02*
X12994500Y-10643500D01*
X12954500Y-10857500D02*
X12954500Y-10937500D01*
X12914500Y-10897500D02*
X12994500Y-10897500D01*
X14478500Y-8063500D02*
X14478500Y-8143500D01*
X14438500Y-8103500D02*
X14518500Y-8103500D01*
X14478500Y-8317500D02*
X14478500Y-8397500D01*
X14438500Y-8357500D02*
X14518500Y-8357500D01*
X14478500Y-8571500D02*
X14478500Y-8651500D01*
X14438500Y-8611500D02*
X14518500Y-8611500D01*
X14478500Y-8825500D02*
X14478500Y-8905500D01*
X14438500Y-8865500D02*
X14518500Y-8865500D01*
X14478500Y-9079500D02*
X14478500Y-9159500D01*
X14438500Y-9119500D02*
X14518500Y-9119500D01*
X14478500Y-9333500D02*
X14478500Y-9413500D01*
X14438500Y-9373500D02*
X14518500Y-9373500D01*
X14478500Y-9587500D02*
X14478500Y-9667500D01*
X14438500Y-9627500D02*
X14518500Y-9627500D01*
X14478500Y-9841500D02*
X14478500Y-9921500D01*
X14438500Y-9881500D02*
X14518500Y-9881500D01*
X14478500Y-10095500D02*
X14478500Y-10175500D01*
X14438500Y-10135500D02*
X14518500Y-10135500D01*
X14478500Y-10349500D02*
X14478500Y-10429500D01*
X14438500Y-10389500D02*
X14518500Y-10389500D01*
X14478500Y-10603500D02*
X14478500Y-10683500D01*
X14438500Y-10643500D02*
X14518500Y-10643500D01*
X14478500Y-10857500D02*
X14478500Y-10937500D01*
X14438500Y-10897500D02*
X14518500Y-10897500D01*
X15399000Y-9880000D02*
X15399000Y-9960000D01*
X15359000Y-9920000D02*
X15439000Y-9920000D01*
X15399000Y-10600000D02*
X15399000Y-10680000D01*
X15359000Y-10640000D02*
X15439000Y-10640000D01*
X16161000Y-9880000D02*
X16161000Y-9960000D01*
X16121000Y-9920000D02*
X16201000Y-9920000D01*
X16161000Y-10600000D02*
X16161000Y-10680000D01*
X16121000Y-10640000D02*
X16201000Y-10640000D01*
X16600000Y-9872500D02*
X16600000Y-9952500D01*
X16560000Y-9912500D02*
X16640000Y-9912500D01*
X16600000Y-10126500D02*
X16600000Y-10206500D01*
X16560000Y-10166500D02*
X16640000Y-10166500D01*
X17362000Y-9872500D02*
X17362000Y-9952500D01*
X17322000Y-9912500D02*
X17402000Y-9912500D01*
X17362000Y-10126500D02*
X17362000Y-10206500D01*
X17322000Y-10166500D02*
X17402000Y-10166500D01*
D15*
X15115356Y-10412856D02*
X15115356Y-10342144D01*
X15044644Y-10342144D01*
X15044644Y-10412856D01*
X15115356Y-10412856D01*
X15115356Y-10666856D02*
X15115356Y-10596144D01*
X15044644Y-10596144D01*
X15044644Y-10666856D01*
X15115356Y-10666856D01*
X15115356Y-10920856D02*
X15115356Y-10850144D01*
X15044644Y-10850144D01*
X15044644Y-10920856D01*
X15115356Y-10920856D01*
X15355356Y-8500356D02*
X15355356Y-8429644D01*
X15284644Y-8429644D01*
X15284644Y-8500356D01*
X15355356Y-8500356D01*
D11*
X15280000Y-8415000D02*
X15280000Y-8515000D01*
X15360000Y-8415000D02*
X15360000Y-8515000D01*
X15280000Y-8515000D02*
G75*
G03*
X15360000Y-8515000I40000J0D01*
G01*
X15360000Y-8415000D02*
G75*
G03*
X15280000Y-8415000I-40000J0D01*
G01*
D15*
X15810356Y-8170356D02*
X15810356Y-8099644D01*
X15739644Y-8099644D01*
X15739644Y-8170356D01*
X15810356Y-8170356D01*
D11*
X15825000Y-8095000D02*
X15725000Y-8095000D01*
X15825000Y-8175000D02*
X15725000Y-8175000D01*
X15725000Y-8095000D02*
G75*
G03*
X15725000Y-8175000I0J-40000D01*
G01*
X15825000Y-8175000D02*
G75*
G03*
X15825000Y-8095000I0J40000D01*
G01*
D15*
X16315356Y-8950356D02*
X16315356Y-8879644D01*
X16244644Y-8879644D01*
X16244644Y-8950356D01*
X16315356Y-8950356D01*
D11*
X16240000Y-8865000D02*
X16240000Y-8965000D01*
X16320000Y-8865000D02*
X16320000Y-8965000D01*
X16240000Y-8965000D02*
G75*
G03*
X16320000Y-8965000I40000J0D01*
G01*
X16320000Y-8865000D02*
G75*
G03*
X16240000Y-8865000I-40000J0D01*
G01*
D15*
X17055356Y-8500356D02*
X17055356Y-8429644D01*
X16984644Y-8429644D01*
X16984644Y-8500356D01*
X17055356Y-8500356D01*
D11*
X16980000Y-8415000D02*
X16980000Y-8515000D01*
X17060000Y-8415000D02*
X17060000Y-8515000D01*
X16980000Y-8515000D02*
G75*
G03*
X17060000Y-8515000I40000J0D01*
G01*
X17060000Y-8415000D02*
G75*
G03*
X16980000Y-8415000I-40000J0D01*
G01*
D15*
X17510356Y-8170356D02*
X17510356Y-8099644D01*
X17439644Y-8099644D01*
X17439644Y-8170356D01*
X17510356Y-8170356D01*
D11*
X17525000Y-8095000D02*
X17425000Y-8095000D01*
X17525000Y-8175000D02*
X17425000Y-8175000D01*
X17425000Y-8095000D02*
G75*
G03*
X17425000Y-8175000I0J-40000D01*
G01*
X17525000Y-8175000D02*
G75*
G03*
X17525000Y-8095000I0J40000D01*
G01*
D15*
X18015356Y-8950356D02*
X18015356Y-8879644D01*
X17944644Y-8879644D01*
X17944644Y-8950356D01*
X18015356Y-8950356D01*
D11*
X17940000Y-8865000D02*
X17940000Y-8965000D01*
X18020000Y-8865000D02*
X18020000Y-8965000D01*
X17940000Y-8965000D02*
G75*
G03*
X18020000Y-8965000I40000J0D01*
G01*
X18020000Y-8865000D02*
G75*
G03*
X17940000Y-8865000I-40000J0D01*
G01*
X12252619Y-12915476D02*
X12252619Y-12715476D01*
X12300238Y-12715476D01*
X12328809Y-12725000D01*
X12347857Y-12744048D01*
X12357381Y-12763095D01*
X12366905Y-12801190D01*
X12366905Y-12829762D01*
X12357381Y-12867857D01*
X12347857Y-12886905D01*
X12328809Y-12905952D01*
X12300238Y-12915476D01*
X12252619Y-12915476D01*
X12452619Y-12915476D02*
X12452619Y-12782143D01*
X12452619Y-12820238D02*
X12462143Y-12801190D01*
X12471667Y-12791667D01*
X12490714Y-12782143D01*
X12509762Y-12782143D01*
X12576428Y-12915476D02*
X12576428Y-12782143D01*
X12576428Y-12715476D02*
X12566905Y-12725000D01*
X12576428Y-12734524D01*
X12585952Y-12725000D01*
X12576428Y-12715476D01*
X12576428Y-12734524D01*
X12700238Y-12915476D02*
X12681190Y-12905952D01*
X12671667Y-12886905D01*
X12671667Y-12715476D01*
X12805000Y-12915476D02*
X12785952Y-12905952D01*
X12776428Y-12886905D01*
X12776428Y-12715476D01*
X13033571Y-12915476D02*
X13033571Y-12715476D01*
X13100238Y-12858333D01*
X13166905Y-12715476D01*
X13166905Y-12915476D01*
X13347857Y-12915476D02*
X13347857Y-12810714D01*
X13338333Y-12791667D01*
X13319286Y-12782143D01*
X13281190Y-12782143D01*
X13262143Y-12791667D01*
X13347857Y-12905952D02*
X13328809Y-12915476D01*
X13281190Y-12915476D01*
X13262143Y-12905952D01*
X13252619Y-12886905D01*
X13252619Y-12867857D01*
X13262143Y-12848809D01*
X13281190Y-12839286D01*
X13328809Y-12839286D01*
X13347857Y-12829762D01*
X13443095Y-12782143D02*
X13443095Y-12982143D01*
X13443095Y-12791667D02*
X13462143Y-12782143D01*
X13500238Y-12782143D01*
X13519286Y-12791667D01*
X13528809Y-12801190D01*
X13538333Y-12820238D01*
X13538333Y-12877381D01*
X13528809Y-12896428D01*
X13519286Y-12905952D01*
X13500238Y-12915476D01*
X13462143Y-12915476D01*
X13443095Y-12905952D01*
X13624048Y-12896428D02*
X13633571Y-12905952D01*
X13624048Y-12915476D01*
X13614524Y-12905952D01*
X13624048Y-12896428D01*
X13624048Y-12915476D01*
X13624048Y-12791667D02*
X13633571Y-12801190D01*
X13624048Y-12810714D01*
X13614524Y-12801190D01*
X13624048Y-12791667D01*
X13624048Y-12810714D01*
D12*
X11925000Y-13210000D02*
X11995000Y-13280000D01*
X11995000Y-13210000D02*
X11925000Y-13280000D01*
D11*
X12290714Y-13135476D02*
X12309762Y-13135476D01*
X12328809Y-13145000D01*
X12338333Y-13154524D01*
X12347857Y-13173571D01*
X12357381Y-13211667D01*
X12357381Y-13259286D01*
X12347857Y-13297381D01*
X12338333Y-13316428D01*
X12328809Y-13325952D01*
X12309762Y-13335476D01*
X12290714Y-13335476D01*
X12271667Y-13325952D01*
X12262143Y-13316428D01*
X12252619Y-13297381D01*
X12243095Y-13259286D01*
X12243095Y-13211667D01*
X12252619Y-13173571D01*
X12262143Y-13154524D01*
X12271667Y-13145000D01*
X12290714Y-13135476D01*
X12443095Y-13316428D02*
X12452619Y-13325952D01*
X12443095Y-13335476D01*
X12433571Y-13325952D01*
X12443095Y-13316428D01*
X12443095Y-13335476D01*
X12519286Y-13135476D02*
X12652619Y-13135476D01*
X12566905Y-13335476D01*
X12766905Y-13135476D02*
X12785952Y-13135476D01*
X12805000Y-13145000D01*
X12814524Y-13154524D01*
X12824048Y-13173571D01*
X12833571Y-13211667D01*
X12833571Y-13259286D01*
X12824048Y-13297381D01*
X12814524Y-13316428D01*
X12805000Y-13325952D01*
X12785952Y-13335476D01*
X12766905Y-13335476D01*
X12747857Y-13325952D01*
X12738333Y-13316428D01*
X12728809Y-13297381D01*
X12719286Y-13259286D01*
X12719286Y-13211667D01*
X12728809Y-13173571D01*
X12738333Y-13154524D01*
X12747857Y-13145000D01*
X12766905Y-13135476D01*
X12957381Y-13135476D02*
X12976428Y-13135476D01*
X12995476Y-13145000D01*
X13005000Y-13154524D01*
X13014524Y-13173571D01*
X13024048Y-13211667D01*
X13024048Y-13259286D01*
X13014524Y-13297381D01*
X13005000Y-13316428D01*
X12995476Y-13325952D01*
X12976428Y-13335476D01*
X12957381Y-13335476D01*
X12938333Y-13325952D01*
X12928809Y-13316428D01*
X12919286Y-13297381D01*
X12909762Y-13259286D01*
X12909762Y-13211667D01*
X12919286Y-13173571D01*
X12928809Y-13154524D01*
X12938333Y-13145000D01*
X12957381Y-13135476D01*
X13109762Y-13335476D02*
X13109762Y-13202143D01*
X13109762Y-13221190D02*
X13119286Y-13211667D01*
X13138333Y-13202143D01*
X13166905Y-13202143D01*
X13185952Y-13211667D01*
X13195476Y-13230714D01*
X13195476Y-13335476D01*
X13195476Y-13230714D02*
X13205000Y-13211667D01*
X13224048Y-13202143D01*
X13252619Y-13202143D01*
X13271667Y-13211667D01*
X13281190Y-13230714D01*
X13281190Y-13335476D01*
X13376428Y-13335476D02*
X13376428Y-13202143D01*
X13376428Y-13221190D02*
X13385952Y-13211667D01*
X13405000Y-13202143D01*
X13433571Y-13202143D01*
X13452619Y-13211667D01*
X13462143Y-13230714D01*
X13462143Y-13335476D01*
X13462143Y-13230714D02*
X13471667Y-13211667D01*
X13490714Y-13202143D01*
X13519286Y-13202143D01*
X13538333Y-13211667D01*
X13547857Y-13230714D01*
X13547857Y-13335476D01*
X13938333Y-13125952D02*
X13766905Y-13383095D01*
X14195476Y-13135476D02*
X14214524Y-13135476D01*
X14233571Y-13145000D01*
X14243095Y-13154524D01*
X14252619Y-13173571D01*
X14262143Y-13211667D01*
X14262143Y-13259286D01*
X14252619Y-13297381D01*
X14243095Y-13316428D01*
X14233571Y-13325952D01*
X14214524Y-13335476D01*
X14195476Y-13335476D01*
X14176428Y-13325952D01*
X14166905Y-13316428D01*
X14157381Y-13297381D01*
X14147857Y-13259286D01*
X14147857Y-13211667D01*
X14157381Y-13173571D01*
X14166905Y-13154524D01*
X14176428Y-13145000D01*
X14195476Y-13135476D01*
X14347857Y-13316428D02*
X14357381Y-13325952D01*
X14347857Y-13335476D01*
X14338333Y-13325952D01*
X14347857Y-13316428D01*
X14347857Y-13335476D01*
X14481190Y-13135476D02*
X14500238Y-13135476D01*
X14519286Y-13145000D01*
X14528809Y-13154524D01*
X14538333Y-13173571D01*
X14547857Y-13211667D01*
X14547857Y-13259286D01*
X14538333Y-13297381D01*
X14528809Y-13316428D01*
X14519286Y-13325952D01*
X14500238Y-13335476D01*
X14481190Y-13335476D01*
X14462143Y-13325952D01*
X14452619Y-13316428D01*
X14443095Y-13297381D01*
X14433571Y-13259286D01*
X14433571Y-13211667D01*
X14443095Y-13173571D01*
X14452619Y-13154524D01*
X14462143Y-13145000D01*
X14481190Y-13135476D01*
X14624048Y-13154524D02*
X14633571Y-13145000D01*
X14652619Y-13135476D01*
X14700238Y-13135476D01*
X14719286Y-13145000D01*
X14728809Y-13154524D01*
X14738333Y-13173571D01*
X14738333Y-13192619D01*
X14728809Y-13221190D01*
X14614524Y-13335476D01*
X14738333Y-13335476D01*
X14805000Y-13135476D02*
X14938333Y-13135476D01*
X14852619Y-13335476D01*
X15100238Y-13135476D02*
X15062143Y-13135476D01*
X15043095Y-13145000D01*
X15033571Y-13154524D01*
X15014524Y-13183095D01*
X15005000Y-13221190D01*
X15005000Y-13297381D01*
X15014524Y-13316428D01*
X15024048Y-13325952D01*
X15043095Y-13335476D01*
X15081190Y-13335476D01*
X15100238Y-13325952D01*
X15109762Y-13316428D01*
X15119286Y-13297381D01*
X15119286Y-13249762D01*
X15109762Y-13230714D01*
X15100238Y-13221190D01*
X15081190Y-13211667D01*
X15043095Y-13211667D01*
X15024048Y-13221190D01*
X15014524Y-13230714D01*
X15005000Y-13249762D01*
X15195476Y-13135476D02*
X15195476Y-13173571D01*
X15271667Y-13135476D02*
X15271667Y-13173571D01*
X15566905Y-13411667D02*
X15557381Y-13402143D01*
X15538333Y-13373571D01*
X15528809Y-13354524D01*
X15519286Y-13325952D01*
X15509762Y-13278333D01*
X15509762Y-13240238D01*
X15519286Y-13192619D01*
X15528809Y-13164048D01*
X15538333Y-13145000D01*
X15557381Y-13116428D01*
X15566905Y-13106905D01*
X15747857Y-13335476D02*
X15633571Y-13335476D01*
X15690714Y-13335476D02*
X15690714Y-13135476D01*
X15671667Y-13164048D01*
X15652619Y-13183095D01*
X15633571Y-13192619D01*
X15871667Y-13135476D02*
X15890714Y-13135476D01*
X15909762Y-13145000D01*
X15919286Y-13154524D01*
X15928809Y-13173571D01*
X15938333Y-13211667D01*
X15938333Y-13259286D01*
X15928809Y-13297381D01*
X15919286Y-13316428D01*
X15909762Y-13325952D01*
X15890714Y-13335476D01*
X15871667Y-13335476D01*
X15852619Y-13325952D01*
X15843095Y-13316428D01*
X15833571Y-13297381D01*
X15824048Y-13259286D01*
X15824048Y-13211667D01*
X15833571Y-13173571D01*
X15843095Y-13154524D01*
X15852619Y-13145000D01*
X15871667Y-13135476D01*
X16005000Y-13135476D02*
X16128809Y-13135476D01*
X16062143Y-13211667D01*
X16090714Y-13211667D01*
X16109762Y-13221190D01*
X16119286Y-13230714D01*
X16128809Y-13249762D01*
X16128809Y-13297381D01*
X16119286Y-13316428D01*
X16109762Y-13325952D01*
X16090714Y-13335476D01*
X16033571Y-13335476D01*
X16014524Y-13325952D01*
X16005000Y-13316428D01*
X16366905Y-13335476D02*
X16366905Y-13135476D01*
X16452619Y-13335476D02*
X16452619Y-13230714D01*
X16443095Y-13211667D01*
X16424048Y-13202143D01*
X16395476Y-13202143D01*
X16376428Y-13211667D01*
X16366905Y-13221190D01*
X16576428Y-13335476D02*
X16557381Y-13325952D01*
X16547857Y-13316428D01*
X16538333Y-13297381D01*
X16538333Y-13240238D01*
X16547857Y-13221190D01*
X16557381Y-13211667D01*
X16576428Y-13202143D01*
X16605000Y-13202143D01*
X16624048Y-13211667D01*
X16633571Y-13221190D01*
X16643095Y-13240238D01*
X16643095Y-13297381D01*
X16633571Y-13316428D01*
X16624048Y-13325952D01*
X16605000Y-13335476D01*
X16576428Y-13335476D01*
X16757381Y-13335476D02*
X16738333Y-13325952D01*
X16728809Y-13306905D01*
X16728809Y-13135476D01*
X16909762Y-13325952D02*
X16890714Y-13335476D01*
X16852619Y-13335476D01*
X16833571Y-13325952D01*
X16824048Y-13306905D01*
X16824048Y-13230714D01*
X16833571Y-13211667D01*
X16852619Y-13202143D01*
X16890714Y-13202143D01*
X16909762Y-13211667D01*
X16919286Y-13230714D01*
X16919286Y-13249762D01*
X16824048Y-13268809D01*
X16995476Y-13325952D02*
X17014524Y-13335476D01*
X17052619Y-13335476D01*
X17071667Y-13325952D01*
X17081190Y-13306905D01*
X17081190Y-13297381D01*
X17071667Y-13278333D01*
X17052619Y-13268809D01*
X17024048Y-13268809D01*
X17005000Y-13259286D01*
X16995476Y-13240238D01*
X16995476Y-13230714D01*
X17005000Y-13211667D01*
X17024048Y-13202143D01*
X17052619Y-13202143D01*
X17071667Y-13211667D01*
X17147857Y-13411667D02*
X17157381Y-13402143D01*
X17176429Y-13373571D01*
X17185952Y-13354524D01*
X17195476Y-13325952D01*
X17205000Y-13278333D01*
X17205000Y-13240238D01*
X17195476Y-13192619D01*
X17185952Y-13164048D01*
X17176429Y-13145000D01*
X17157381Y-13116428D01*
X17147857Y-13106905D01*
D13*
X11995000Y-13509000D02*
G75*
G03*
X11995000Y-13509000I-37500J0D01*
G01*
D11*
X12290714Y-13399476D02*
X12309762Y-13399476D01*
X12328809Y-13409000D01*
X12338333Y-13418524D01*
X12347857Y-13437571D01*
X12357381Y-13475667D01*
X12357381Y-13523286D01*
X12347857Y-13561381D01*
X12338333Y-13580428D01*
X12328809Y-13589952D01*
X12309762Y-13599476D01*
X12290714Y-13599476D01*
X12271667Y-13589952D01*
X12262143Y-13580428D01*
X12252619Y-13561381D01*
X12243095Y-13523286D01*
X12243095Y-13475667D01*
X12252619Y-13437571D01*
X12262143Y-13418524D01*
X12271667Y-13409000D01*
X12290714Y-13399476D01*
X12443095Y-13580428D02*
X12452619Y-13589952D01*
X12443095Y-13599476D01*
X12433571Y-13589952D01*
X12443095Y-13580428D01*
X12443095Y-13599476D01*
X12519286Y-13399476D02*
X12652619Y-13399476D01*
X12566905Y-13599476D01*
X12824048Y-13399476D02*
X12728809Y-13399476D01*
X12719286Y-13494714D01*
X12728809Y-13485190D01*
X12747857Y-13475667D01*
X12795476Y-13475667D01*
X12814524Y-13485190D01*
X12824048Y-13494714D01*
X12833571Y-13513762D01*
X12833571Y-13561381D01*
X12824048Y-13580428D01*
X12814524Y-13589952D01*
X12795476Y-13599476D01*
X12747857Y-13599476D01*
X12728809Y-13589952D01*
X12719286Y-13580428D01*
X12957381Y-13399476D02*
X12976428Y-13399476D01*
X12995476Y-13409000D01*
X13005000Y-13418524D01*
X13014524Y-13437571D01*
X13024048Y-13475667D01*
X13024048Y-13523286D01*
X13014524Y-13561381D01*
X13005000Y-13580428D01*
X12995476Y-13589952D01*
X12976428Y-13599476D01*
X12957381Y-13599476D01*
X12938333Y-13589952D01*
X12928809Y-13580428D01*
X12919286Y-13561381D01*
X12909762Y-13523286D01*
X12909762Y-13475667D01*
X12919286Y-13437571D01*
X12928809Y-13418524D01*
X12938333Y-13409000D01*
X12957381Y-13399476D01*
X13109762Y-13599476D02*
X13109762Y-13466143D01*
X13109762Y-13485190D02*
X13119286Y-13475667D01*
X13138333Y-13466143D01*
X13166905Y-13466143D01*
X13185952Y-13475667D01*
X13195476Y-13494714D01*
X13195476Y-13599476D01*
X13195476Y-13494714D02*
X13205000Y-13475667D01*
X13224048Y-13466143D01*
X13252619Y-13466143D01*
X13271667Y-13475667D01*
X13281190Y-13494714D01*
X13281190Y-13599476D01*
X13376428Y-13599476D02*
X13376428Y-13466143D01*
X13376428Y-13485190D02*
X13385952Y-13475667D01*
X13405000Y-13466143D01*
X13433571Y-13466143D01*
X13452619Y-13475667D01*
X13462143Y-13494714D01*
X13462143Y-13599476D01*
X13462143Y-13494714D02*
X13471667Y-13475667D01*
X13490714Y-13466143D01*
X13519286Y-13466143D01*
X13538333Y-13475667D01*
X13547857Y-13494714D01*
X13547857Y-13599476D01*
X13938333Y-13389952D02*
X13766905Y-13647095D01*
X14195476Y-13399476D02*
X14214524Y-13399476D01*
X14233571Y-13409000D01*
X14243095Y-13418524D01*
X14252619Y-13437571D01*
X14262143Y-13475667D01*
X14262143Y-13523286D01*
X14252619Y-13561381D01*
X14243095Y-13580428D01*
X14233571Y-13589952D01*
X14214524Y-13599476D01*
X14195476Y-13599476D01*
X14176428Y-13589952D01*
X14166905Y-13580428D01*
X14157381Y-13561381D01*
X14147857Y-13523286D01*
X14147857Y-13475667D01*
X14157381Y-13437571D01*
X14166905Y-13418524D01*
X14176428Y-13409000D01*
X14195476Y-13399476D01*
X14347857Y-13580428D02*
X14357381Y-13589952D01*
X14347857Y-13599476D01*
X14338333Y-13589952D01*
X14347857Y-13580428D01*
X14347857Y-13599476D01*
X14481190Y-13399476D02*
X14500238Y-13399476D01*
X14519286Y-13409000D01*
X14528809Y-13418524D01*
X14538333Y-13437571D01*
X14547857Y-13475667D01*
X14547857Y-13523286D01*
X14538333Y-13561381D01*
X14528809Y-13580428D01*
X14519286Y-13589952D01*
X14500238Y-13599476D01*
X14481190Y-13599476D01*
X14462143Y-13589952D01*
X14452619Y-13580428D01*
X14443095Y-13561381D01*
X14433571Y-13523286D01*
X14433571Y-13475667D01*
X14443095Y-13437571D01*
X14452619Y-13418524D01*
X14462143Y-13409000D01*
X14481190Y-13399476D01*
X14624048Y-13418524D02*
X14633571Y-13409000D01*
X14652619Y-13399476D01*
X14700238Y-13399476D01*
X14719286Y-13409000D01*
X14728809Y-13418524D01*
X14738333Y-13437571D01*
X14738333Y-13456619D01*
X14728809Y-13485190D01*
X14614524Y-13599476D01*
X14738333Y-13599476D01*
X14833571Y-13599476D02*
X14871667Y-13599476D01*
X14890714Y-13589952D01*
X14900238Y-13580428D01*
X14919286Y-13551857D01*
X14928809Y-13513762D01*
X14928809Y-13437571D01*
X14919286Y-13418524D01*
X14909762Y-13409000D01*
X14890714Y-13399476D01*
X14852619Y-13399476D01*
X14833571Y-13409000D01*
X14824048Y-13418524D01*
X14814524Y-13437571D01*
X14814524Y-13485190D01*
X14824048Y-13504238D01*
X14833571Y-13513762D01*
X14852619Y-13523286D01*
X14890714Y-13523286D01*
X14909762Y-13513762D01*
X14919286Y-13504238D01*
X14928809Y-13485190D01*
X15109762Y-13399476D02*
X15014524Y-13399476D01*
X15005000Y-13494714D01*
X15014524Y-13485190D01*
X15033571Y-13475667D01*
X15081190Y-13475667D01*
X15100238Y-13485190D01*
X15109762Y-13494714D01*
X15119286Y-13513762D01*
X15119286Y-13561381D01*
X15109762Y-13580428D01*
X15100238Y-13589952D01*
X15081190Y-13599476D01*
X15033571Y-13599476D01*
X15014524Y-13589952D01*
X15005000Y-13580428D01*
X15195476Y-13399476D02*
X15195476Y-13437571D01*
X15271667Y-13399476D02*
X15271667Y-13437571D01*
X15566905Y-13675667D02*
X15557381Y-13666143D01*
X15538333Y-13637571D01*
X15528809Y-13618524D01*
X15519286Y-13589952D01*
X15509762Y-13542333D01*
X15509762Y-13504238D01*
X15519286Y-13456619D01*
X15528809Y-13428048D01*
X15538333Y-13409000D01*
X15557381Y-13380428D01*
X15566905Y-13370905D01*
X15624048Y-13399476D02*
X15747857Y-13399476D01*
X15681190Y-13475667D01*
X15709762Y-13475667D01*
X15728809Y-13485190D01*
X15738333Y-13494714D01*
X15747857Y-13513762D01*
X15747857Y-13561381D01*
X15738333Y-13580428D01*
X15728809Y-13589952D01*
X15709762Y-13599476D01*
X15652619Y-13599476D01*
X15633571Y-13589952D01*
X15624048Y-13580428D01*
X15985952Y-13599476D02*
X15985952Y-13399476D01*
X16071667Y-13599476D02*
X16071667Y-13494714D01*
X16062143Y-13475667D01*
X16043095Y-13466143D01*
X16014524Y-13466143D01*
X15995476Y-13475667D01*
X15985952Y-13485190D01*
X16195476Y-13599476D02*
X16176428Y-13589952D01*
X16166905Y-13580428D01*
X16157381Y-13561381D01*
X16157381Y-13504238D01*
X16166905Y-13485190D01*
X16176428Y-13475667D01*
X16195476Y-13466143D01*
X16224048Y-13466143D01*
X16243095Y-13475667D01*
X16252619Y-13485190D01*
X16262143Y-13504238D01*
X16262143Y-13561381D01*
X16252619Y-13580428D01*
X16243095Y-13589952D01*
X16224048Y-13599476D01*
X16195476Y-13599476D01*
X16376428Y-13599476D02*
X16357381Y-13589952D01*
X16347857Y-13570905D01*
X16347857Y-13399476D01*
X16528809Y-13589952D02*
X16509762Y-13599476D01*
X16471667Y-13599476D01*
X16452619Y-13589952D01*
X16443095Y-13570905D01*
X16443095Y-13494714D01*
X16452619Y-13475667D01*
X16471667Y-13466143D01*
X16509762Y-13466143D01*
X16528809Y-13475667D01*
X16538333Y-13494714D01*
X16538333Y-13513762D01*
X16443095Y-13532809D01*
X16614524Y-13589952D02*
X16633571Y-13599476D01*
X16671667Y-13599476D01*
X16690714Y-13589952D01*
X16700238Y-13570905D01*
X16700238Y-13561381D01*
X16690714Y-13542333D01*
X16671667Y-13532809D01*
X16643095Y-13532809D01*
X16624048Y-13523286D01*
X16614524Y-13504238D01*
X16614524Y-13494714D01*
X16624048Y-13475667D01*
X16643095Y-13466143D01*
X16671667Y-13466143D01*
X16690714Y-13475667D01*
X16766905Y-13675667D02*
X16776428Y-13666143D01*
X16795476Y-13637571D01*
X16805000Y-13618524D01*
X16814524Y-13589952D01*
X16824048Y-13542333D01*
X16824048Y-13504238D01*
X16814524Y-13456619D01*
X16805000Y-13428048D01*
X16795476Y-13409000D01*
X16776428Y-13380428D01*
X16766905Y-13370905D01*
D14*
X11955000Y-13733000D02*
X11955000Y-13813000D01*
X11915000Y-13773000D02*
X11995000Y-13773000D01*
D11*
X12290714Y-13663476D02*
X12309762Y-13663476D01*
X12328809Y-13673000D01*
X12338333Y-13682524D01*
X12347857Y-13701571D01*
X12357381Y-13739667D01*
X12357381Y-13787286D01*
X12347857Y-13825381D01*
X12338333Y-13844428D01*
X12328809Y-13853952D01*
X12309762Y-13863476D01*
X12290714Y-13863476D01*
X12271667Y-13853952D01*
X12262143Y-13844428D01*
X12252619Y-13825381D01*
X12243095Y-13787286D01*
X12243095Y-13739667D01*
X12252619Y-13701571D01*
X12262143Y-13682524D01*
X12271667Y-13673000D01*
X12290714Y-13663476D01*
X12443095Y-13844428D02*
X12452619Y-13853952D01*
X12443095Y-13863476D01*
X12433571Y-13853952D01*
X12443095Y-13844428D01*
X12443095Y-13863476D01*
X12566905Y-13749190D02*
X12547857Y-13739667D01*
X12538333Y-13730143D01*
X12528809Y-13711095D01*
X12528809Y-13701571D01*
X12538333Y-13682524D01*
X12547857Y-13673000D01*
X12566905Y-13663476D01*
X12605000Y-13663476D01*
X12624048Y-13673000D01*
X12633571Y-13682524D01*
X12643095Y-13701571D01*
X12643095Y-13711095D01*
X12633571Y-13730143D01*
X12624048Y-13739667D01*
X12605000Y-13749190D01*
X12566905Y-13749190D01*
X12547857Y-13758714D01*
X12538333Y-13768238D01*
X12528809Y-13787286D01*
X12528809Y-13825381D01*
X12538333Y-13844428D01*
X12547857Y-13853952D01*
X12566905Y-13863476D01*
X12605000Y-13863476D01*
X12624048Y-13853952D01*
X12633571Y-13844428D01*
X12643095Y-13825381D01*
X12643095Y-13787286D01*
X12633571Y-13768238D01*
X12624048Y-13758714D01*
X12605000Y-13749190D01*
X12766905Y-13663476D02*
X12785952Y-13663476D01*
X12805000Y-13673000D01*
X12814524Y-13682524D01*
X12824048Y-13701571D01*
X12833571Y-13739667D01*
X12833571Y-13787286D01*
X12824048Y-13825381D01*
X12814524Y-13844428D01*
X12805000Y-13853952D01*
X12785952Y-13863476D01*
X12766905Y-13863476D01*
X12747857Y-13853952D01*
X12738333Y-13844428D01*
X12728809Y-13825381D01*
X12719286Y-13787286D01*
X12719286Y-13739667D01*
X12728809Y-13701571D01*
X12738333Y-13682524D01*
X12747857Y-13673000D01*
X12766905Y-13663476D01*
X12957381Y-13663476D02*
X12976428Y-13663476D01*
X12995476Y-13673000D01*
X13005000Y-13682524D01*
X13014524Y-13701571D01*
X13024048Y-13739667D01*
X13024048Y-13787286D01*
X13014524Y-13825381D01*
X13005000Y-13844428D01*
X12995476Y-13853952D01*
X12976428Y-13863476D01*
X12957381Y-13863476D01*
X12938333Y-13853952D01*
X12928809Y-13844428D01*
X12919286Y-13825381D01*
X12909762Y-13787286D01*
X12909762Y-13739667D01*
X12919286Y-13701571D01*
X12928809Y-13682524D01*
X12938333Y-13673000D01*
X12957381Y-13663476D01*
X13109762Y-13863476D02*
X13109762Y-13730143D01*
X13109762Y-13749190D02*
X13119286Y-13739667D01*
X13138333Y-13730143D01*
X13166905Y-13730143D01*
X13185952Y-13739667D01*
X13195476Y-13758714D01*
X13195476Y-13863476D01*
X13195476Y-13758714D02*
X13205000Y-13739667D01*
X13224048Y-13730143D01*
X13252619Y-13730143D01*
X13271667Y-13739667D01*
X13281190Y-13758714D01*
X13281190Y-13863476D01*
X13376428Y-13863476D02*
X13376428Y-13730143D01*
X13376428Y-13749190D02*
X13385952Y-13739667D01*
X13405000Y-13730143D01*
X13433571Y-13730143D01*
X13452619Y-13739667D01*
X13462143Y-13758714D01*
X13462143Y-13863476D01*
X13462143Y-13758714D02*
X13471667Y-13739667D01*
X13490714Y-13730143D01*
X13519286Y-13730143D01*
X13538333Y-13739667D01*
X13547857Y-13758714D01*
X13547857Y-13863476D01*
X13938333Y-13653952D02*
X13766905Y-13911095D01*
X14195476Y-13663476D02*
X14214524Y-13663476D01*
X14233571Y-13673000D01*
X14243095Y-13682524D01*
X14252619Y-13701571D01*
X14262143Y-13739667D01*
X14262143Y-13787286D01*
X14252619Y-13825381D01*
X14243095Y-13844428D01*
X14233571Y-13853952D01*
X14214524Y-13863476D01*
X14195476Y-13863476D01*
X14176428Y-13853952D01*
X14166905Y-13844428D01*
X14157381Y-13825381D01*
X14147857Y-13787286D01*
X14147857Y-13739667D01*
X14157381Y-13701571D01*
X14166905Y-13682524D01*
X14176428Y-13673000D01*
X14195476Y-13663476D01*
X14347857Y-13844428D02*
X14357381Y-13853952D01*
X14347857Y-13863476D01*
X14338333Y-13853952D01*
X14347857Y-13844428D01*
X14347857Y-13863476D01*
X14481190Y-13663476D02*
X14500238Y-13663476D01*
X14519286Y-13673000D01*
X14528809Y-13682524D01*
X14538333Y-13701571D01*
X14547857Y-13739667D01*
X14547857Y-13787286D01*
X14538333Y-13825381D01*
X14528809Y-13844428D01*
X14519286Y-13853952D01*
X14500238Y-13863476D01*
X14481190Y-13863476D01*
X14462143Y-13853952D01*
X14452619Y-13844428D01*
X14443095Y-13825381D01*
X14433571Y-13787286D01*
X14433571Y-13739667D01*
X14443095Y-13701571D01*
X14452619Y-13682524D01*
X14462143Y-13673000D01*
X14481190Y-13663476D01*
X14614524Y-13663476D02*
X14738333Y-13663476D01*
X14671667Y-13739667D01*
X14700238Y-13739667D01*
X14719286Y-13749190D01*
X14728809Y-13758714D01*
X14738333Y-13777762D01*
X14738333Y-13825381D01*
X14728809Y-13844428D01*
X14719286Y-13853952D01*
X14700238Y-13863476D01*
X14643095Y-13863476D01*
X14624048Y-13853952D01*
X14614524Y-13844428D01*
X14928809Y-13863476D02*
X14814524Y-13863476D01*
X14871667Y-13863476D02*
X14871667Y-13663476D01*
X14852619Y-13692048D01*
X14833571Y-13711095D01*
X14814524Y-13720619D01*
X15109762Y-13663476D02*
X15014524Y-13663476D01*
X15005000Y-13758714D01*
X15014524Y-13749190D01*
X15033571Y-13739667D01*
X15081190Y-13739667D01*
X15100238Y-13749190D01*
X15109762Y-13758714D01*
X15119286Y-13777762D01*
X15119286Y-13825381D01*
X15109762Y-13844428D01*
X15100238Y-13853952D01*
X15081190Y-13863476D01*
X15033571Y-13863476D01*
X15014524Y-13853952D01*
X15005000Y-13844428D01*
X15195476Y-13663476D02*
X15195476Y-13701571D01*
X15271667Y-13663476D02*
X15271667Y-13701571D01*
X15566905Y-13939667D02*
X15557381Y-13930143D01*
X15538333Y-13901571D01*
X15528809Y-13882524D01*
X15519286Y-13853952D01*
X15509762Y-13806333D01*
X15509762Y-13768238D01*
X15519286Y-13720619D01*
X15528809Y-13692048D01*
X15538333Y-13673000D01*
X15557381Y-13644428D01*
X15566905Y-13634905D01*
X15624048Y-13663476D02*
X15747857Y-13663476D01*
X15681190Y-13739667D01*
X15709762Y-13739667D01*
X15728809Y-13749190D01*
X15738333Y-13758714D01*
X15747857Y-13777762D01*
X15747857Y-13825381D01*
X15738333Y-13844428D01*
X15728809Y-13853952D01*
X15709762Y-13863476D01*
X15652619Y-13863476D01*
X15633571Y-13853952D01*
X15624048Y-13844428D01*
X15824048Y-13682524D02*
X15833571Y-13673000D01*
X15852619Y-13663476D01*
X15900238Y-13663476D01*
X15919286Y-13673000D01*
X15928809Y-13682524D01*
X15938333Y-13701571D01*
X15938333Y-13720619D01*
X15928809Y-13749190D01*
X15814524Y-13863476D01*
X15938333Y-13863476D01*
X16176428Y-13863476D02*
X16176428Y-13663476D01*
X16262143Y-13863476D02*
X16262143Y-13758714D01*
X16252619Y-13739667D01*
X16233571Y-13730143D01*
X16205000Y-13730143D01*
X16185952Y-13739667D01*
X16176428Y-13749190D01*
X16385952Y-13863476D02*
X16366905Y-13853952D01*
X16357381Y-13844428D01*
X16347857Y-13825381D01*
X16347857Y-13768238D01*
X16357381Y-13749190D01*
X16366905Y-13739667D01*
X16385952Y-13730143D01*
X16414524Y-13730143D01*
X16433571Y-13739667D01*
X16443095Y-13749190D01*
X16452619Y-13768238D01*
X16452619Y-13825381D01*
X16443095Y-13844428D01*
X16433571Y-13853952D01*
X16414524Y-13863476D01*
X16385952Y-13863476D01*
X16566905Y-13863476D02*
X16547857Y-13853952D01*
X16538333Y-13834905D01*
X16538333Y-13663476D01*
X16719286Y-13853952D02*
X16700238Y-13863476D01*
X16662143Y-13863476D01*
X16643095Y-13853952D01*
X16633571Y-13834905D01*
X16633571Y-13758714D01*
X16643095Y-13739667D01*
X16662143Y-13730143D01*
X16700238Y-13730143D01*
X16719286Y-13739667D01*
X16728809Y-13758714D01*
X16728809Y-13777762D01*
X16633571Y-13796809D01*
X16805000Y-13853952D02*
X16824048Y-13863476D01*
X16862143Y-13863476D01*
X16881190Y-13853952D01*
X16890714Y-13834905D01*
X16890714Y-13825381D01*
X16881190Y-13806333D01*
X16862143Y-13796809D01*
X16833571Y-13796809D01*
X16814524Y-13787286D01*
X16805000Y-13768238D01*
X16805000Y-13758714D01*
X16814524Y-13739667D01*
X16833571Y-13730143D01*
X16862143Y-13730143D01*
X16881190Y-13739667D01*
X16957381Y-13939667D02*
X16966905Y-13930143D01*
X16985952Y-13901571D01*
X16995476Y-13882524D01*
X17005000Y-13853952D01*
X17014524Y-13806333D01*
X17014524Y-13768238D01*
X17005000Y-13720619D01*
X16995476Y-13692048D01*
X16985952Y-13673000D01*
X16966905Y-13644428D01*
X16957381Y-13634905D01*
D15*
X11980356Y-14072356D02*
X11980356Y-14001644D01*
X11909644Y-14001644D01*
X11909644Y-14072356D01*
X11980356Y-14072356D01*
D11*
X12357381Y-14127476D02*
X12243095Y-14127476D01*
X12300238Y-14127476D02*
X12300238Y-13927476D01*
X12281190Y-13956048D01*
X12262143Y-13975095D01*
X12243095Y-13984619D01*
X12443095Y-14108428D02*
X12452619Y-14117952D01*
X12443095Y-14127476D01*
X12433571Y-14117952D01*
X12443095Y-14108428D01*
X12443095Y-14127476D01*
X12576428Y-13927476D02*
X12595476Y-13927476D01*
X12614524Y-13937000D01*
X12624048Y-13946524D01*
X12633571Y-13965571D01*
X12643095Y-14003667D01*
X12643095Y-14051286D01*
X12633571Y-14089381D01*
X12624048Y-14108428D01*
X12614524Y-14117952D01*
X12595476Y-14127476D01*
X12576428Y-14127476D01*
X12557381Y-14117952D01*
X12547857Y-14108428D01*
X12538333Y-14089381D01*
X12528809Y-14051286D01*
X12528809Y-14003667D01*
X12538333Y-13965571D01*
X12547857Y-13946524D01*
X12557381Y-13937000D01*
X12576428Y-13927476D01*
X12766905Y-13927476D02*
X12785952Y-13927476D01*
X12805000Y-13937000D01*
X12814524Y-13946524D01*
X12824048Y-13965571D01*
X12833571Y-14003667D01*
X12833571Y-14051286D01*
X12824048Y-14089381D01*
X12814524Y-14108428D01*
X12805000Y-14117952D01*
X12785952Y-14127476D01*
X12766905Y-14127476D01*
X12747857Y-14117952D01*
X12738333Y-14108428D01*
X12728809Y-14089381D01*
X12719286Y-14051286D01*
X12719286Y-14003667D01*
X12728809Y-13965571D01*
X12738333Y-13946524D01*
X12747857Y-13937000D01*
X12766905Y-13927476D01*
X12957381Y-13927476D02*
X12976428Y-13927476D01*
X12995476Y-13937000D01*
X13005000Y-13946524D01*
X13014524Y-13965571D01*
X13024048Y-14003667D01*
X13024048Y-14051286D01*
X13014524Y-14089381D01*
X13005000Y-14108428D01*
X12995476Y-14117952D01*
X12976428Y-14127476D01*
X12957381Y-14127476D01*
X12938333Y-14117952D01*
X12928809Y-14108428D01*
X12919286Y-14089381D01*
X12909762Y-14051286D01*
X12909762Y-14003667D01*
X12919286Y-13965571D01*
X12928809Y-13946524D01*
X12938333Y-13937000D01*
X12957381Y-13927476D01*
X13109762Y-14127476D02*
X13109762Y-13994143D01*
X13109762Y-14013190D02*
X13119286Y-14003667D01*
X13138333Y-13994143D01*
X13166905Y-13994143D01*
X13185952Y-14003667D01*
X13195476Y-14022714D01*
X13195476Y-14127476D01*
X13195476Y-14022714D02*
X13205000Y-14003667D01*
X13224048Y-13994143D01*
X13252619Y-13994143D01*
X13271667Y-14003667D01*
X13281190Y-14022714D01*
X13281190Y-14127476D01*
X13376428Y-14127476D02*
X13376428Y-13994143D01*
X13376428Y-14013190D02*
X13385952Y-14003667D01*
X13405000Y-13994143D01*
X13433571Y-13994143D01*
X13452619Y-14003667D01*
X13462143Y-14022714D01*
X13462143Y-14127476D01*
X13462143Y-14022714D02*
X13471667Y-14003667D01*
X13490714Y-13994143D01*
X13519286Y-13994143D01*
X13538333Y-14003667D01*
X13547857Y-14022714D01*
X13547857Y-14127476D01*
X13938333Y-13917952D02*
X13766905Y-14175095D01*
X14195476Y-13927476D02*
X14214524Y-13927476D01*
X14233571Y-13937000D01*
X14243095Y-13946524D01*
X14252619Y-13965571D01*
X14262143Y-14003667D01*
X14262143Y-14051286D01*
X14252619Y-14089381D01*
X14243095Y-14108428D01*
X14233571Y-14117952D01*
X14214524Y-14127476D01*
X14195476Y-14127476D01*
X14176428Y-14117952D01*
X14166905Y-14108428D01*
X14157381Y-14089381D01*
X14147857Y-14051286D01*
X14147857Y-14003667D01*
X14157381Y-13965571D01*
X14166905Y-13946524D01*
X14176428Y-13937000D01*
X14195476Y-13927476D01*
X14347857Y-14108428D02*
X14357381Y-14117952D01*
X14347857Y-14127476D01*
X14338333Y-14117952D01*
X14347857Y-14108428D01*
X14347857Y-14127476D01*
X14481190Y-13927476D02*
X14500238Y-13927476D01*
X14519286Y-13937000D01*
X14528809Y-13946524D01*
X14538333Y-13965571D01*
X14547857Y-14003667D01*
X14547857Y-14051286D01*
X14538333Y-14089381D01*
X14528809Y-14108428D01*
X14519286Y-14117952D01*
X14500238Y-14127476D01*
X14481190Y-14127476D01*
X14462143Y-14117952D01*
X14452619Y-14108428D01*
X14443095Y-14089381D01*
X14433571Y-14051286D01*
X14433571Y-14003667D01*
X14443095Y-13965571D01*
X14452619Y-13946524D01*
X14462143Y-13937000D01*
X14481190Y-13927476D01*
X14614524Y-13927476D02*
X14738333Y-13927476D01*
X14671667Y-14003667D01*
X14700238Y-14003667D01*
X14719286Y-14013190D01*
X14728809Y-14022714D01*
X14738333Y-14041762D01*
X14738333Y-14089381D01*
X14728809Y-14108428D01*
X14719286Y-14117952D01*
X14700238Y-14127476D01*
X14643095Y-14127476D01*
X14624048Y-14117952D01*
X14614524Y-14108428D01*
X14833571Y-14127476D02*
X14871667Y-14127476D01*
X14890714Y-14117952D01*
X14900238Y-14108428D01*
X14919286Y-14079857D01*
X14928809Y-14041762D01*
X14928809Y-13965571D01*
X14919286Y-13946524D01*
X14909762Y-13937000D01*
X14890714Y-13927476D01*
X14852619Y-13927476D01*
X14833571Y-13937000D01*
X14824048Y-13946524D01*
X14814524Y-13965571D01*
X14814524Y-14013190D01*
X14824048Y-14032238D01*
X14833571Y-14041762D01*
X14852619Y-14051286D01*
X14890714Y-14051286D01*
X14909762Y-14041762D01*
X14919286Y-14032238D01*
X14928809Y-14013190D01*
X15100238Y-13994143D02*
X15100238Y-14127476D01*
X15052619Y-13917952D02*
X15005000Y-14060809D01*
X15128809Y-14060809D01*
X15195476Y-13927476D02*
X15195476Y-13965571D01*
X15271667Y-13927476D02*
X15271667Y-13965571D01*
X15566905Y-14203667D02*
X15557381Y-14194143D01*
X15538333Y-14165571D01*
X15528809Y-14146524D01*
X15519286Y-14117952D01*
X15509762Y-14070333D01*
X15509762Y-14032238D01*
X15519286Y-13984619D01*
X15528809Y-13956048D01*
X15538333Y-13937000D01*
X15557381Y-13908428D01*
X15566905Y-13898905D01*
X15624048Y-13927476D02*
X15747857Y-13927476D01*
X15681190Y-14003667D01*
X15709762Y-14003667D01*
X15728809Y-14013190D01*
X15738333Y-14022714D01*
X15747857Y-14041762D01*
X15747857Y-14089381D01*
X15738333Y-14108428D01*
X15728809Y-14117952D01*
X15709762Y-14127476D01*
X15652619Y-14127476D01*
X15633571Y-14117952D01*
X15624048Y-14108428D01*
X15985952Y-14127476D02*
X15985952Y-13927476D01*
X16071667Y-14127476D02*
X16071667Y-14022714D01*
X16062143Y-14003667D01*
X16043095Y-13994143D01*
X16014524Y-13994143D01*
X15995476Y-14003667D01*
X15985952Y-14013190D01*
X16195476Y-14127476D02*
X16176428Y-14117952D01*
X16166905Y-14108428D01*
X16157381Y-14089381D01*
X16157381Y-14032238D01*
X16166905Y-14013190D01*
X16176428Y-14003667D01*
X16195476Y-13994143D01*
X16224048Y-13994143D01*
X16243095Y-14003667D01*
X16252619Y-14013190D01*
X16262143Y-14032238D01*
X16262143Y-14089381D01*
X16252619Y-14108428D01*
X16243095Y-14117952D01*
X16224048Y-14127476D01*
X16195476Y-14127476D01*
X16376428Y-14127476D02*
X16357381Y-14117952D01*
X16347857Y-14098905D01*
X16347857Y-13927476D01*
X16528809Y-14117952D02*
X16509762Y-14127476D01*
X16471667Y-14127476D01*
X16452619Y-14117952D01*
X16443095Y-14098905D01*
X16443095Y-14022714D01*
X16452619Y-14003667D01*
X16471667Y-13994143D01*
X16509762Y-13994143D01*
X16528809Y-14003667D01*
X16538333Y-14022714D01*
X16538333Y-14041762D01*
X16443095Y-14060809D01*
X16614524Y-14117952D02*
X16633571Y-14127476D01*
X16671667Y-14127476D01*
X16690714Y-14117952D01*
X16700238Y-14098905D01*
X16700238Y-14089381D01*
X16690714Y-14070333D01*
X16671667Y-14060809D01*
X16643095Y-14060809D01*
X16624048Y-14051286D01*
X16614524Y-14032238D01*
X16614524Y-14022714D01*
X16624048Y-14003667D01*
X16643095Y-13994143D01*
X16671667Y-13994143D01*
X16690714Y-14003667D01*
X16938333Y-14051286D02*
X17090714Y-14051286D01*
X17014524Y-14127476D02*
X17014524Y-13975095D01*
X17424048Y-13927476D02*
X17385952Y-13927476D01*
X17366905Y-13937000D01*
X17357381Y-13946524D01*
X17338333Y-13975095D01*
X17328810Y-14013190D01*
X17328810Y-14089381D01*
X17338333Y-14108428D01*
X17347857Y-14117952D01*
X17366905Y-14127476D01*
X17405000Y-14127476D01*
X17424048Y-14117952D01*
X17433571Y-14108428D01*
X17443095Y-14089381D01*
X17443095Y-14041762D01*
X17433571Y-14022714D01*
X17424048Y-14013190D01*
X17405000Y-14003667D01*
X17366905Y-14003667D01*
X17347857Y-14013190D01*
X17338333Y-14022714D01*
X17328810Y-14041762D01*
X17671667Y-14117952D02*
X17690714Y-14127476D01*
X17728810Y-14127476D01*
X17747857Y-14117952D01*
X17757381Y-14098905D01*
X17757381Y-14089381D01*
X17747857Y-14070333D01*
X17728810Y-14060809D01*
X17700238Y-14060809D01*
X17681190Y-14051286D01*
X17671667Y-14032238D01*
X17671667Y-14022714D01*
X17681190Y-14003667D01*
X17700238Y-13994143D01*
X17728810Y-13994143D01*
X17747857Y-14003667D01*
X17871667Y-14127476D02*
X17852619Y-14117952D01*
X17843095Y-14098905D01*
X17843095Y-13927476D01*
X17976429Y-14127476D02*
X17957381Y-14117952D01*
X17947857Y-14108428D01*
X17938333Y-14089381D01*
X17938333Y-14032238D01*
X17947857Y-14013190D01*
X17957381Y-14003667D01*
X17976429Y-13994143D01*
X18005000Y-13994143D01*
X18024048Y-14003667D01*
X18033571Y-14013190D01*
X18043095Y-14032238D01*
X18043095Y-14089381D01*
X18033571Y-14108428D01*
X18024048Y-14117952D01*
X18005000Y-14127476D01*
X17976429Y-14127476D01*
X18100238Y-13994143D02*
X18176429Y-13994143D01*
X18128810Y-13927476D02*
X18128810Y-14098905D01*
X18138333Y-14117952D01*
X18157381Y-14127476D01*
X18176429Y-14127476D01*
X18233571Y-14117952D02*
X18252619Y-14127476D01*
X18290714Y-14127476D01*
X18309762Y-14117952D01*
X18319286Y-14098905D01*
X18319286Y-14089381D01*
X18309762Y-14070333D01*
X18290714Y-14060809D01*
X18262143Y-14060809D01*
X18243095Y-14051286D01*
X18233571Y-14032238D01*
X18233571Y-14022714D01*
X18243095Y-14003667D01*
X18262143Y-13994143D01*
X18290714Y-13994143D01*
X18309762Y-14003667D01*
X18385952Y-14203667D02*
X18395476Y-14194143D01*
X18414524Y-14165571D01*
X18424048Y-14146524D01*
X18433571Y-14117952D01*
X18443095Y-14070333D01*
X18443095Y-14032238D01*
X18433571Y-13984619D01*
X18424048Y-13956048D01*
X18414524Y-13937000D01*
X18395476Y-13908428D01*
X18385952Y-13898905D01*
M02*
