%FSLAX45Y45*%
G04 Gerber Fmt 4.5, Leading zero omitted, Abs format (unit mm)*
G04 Created by KiCad (PCBNEW (6.0.2)) date 2022-03-17 13:32:33*
%MOMM*%
%LPD*%
G01*
G04 APERTURE LIST*
%TA.AperFunction,Profile*%
%ADD10C,0.100000*%
%TD*%
%ADD11C,0.200000*%
%ADD12C,0.320000*%
G04 APERTURE END LIST*
D10*
X12200000Y-12600000D02*
X19000000Y-12600000D01*
X12200000Y-7900000D02*
G75*
G03*
X12000000Y-8100000I0J-200000D01*
G01*
X12200000Y-7900000D02*
X19000000Y-7900000D01*
X19200000Y-8100000D02*
G75*
G03*
X19000000Y-7900000I-200000J0D01*
G01*
X12000000Y-12400000D02*
X12000000Y-8100000D01*
X12000000Y-12400000D02*
G75*
G03*
X12200000Y-12600000I200000J0D01*
G01*
X19000000Y-12600000D02*
G75*
G03*
X19200000Y-12400000I0J200000D01*
G01*
X19200000Y-8100000D02*
X19200000Y-12400000D01*
D11*
D12*
X12140000Y-8040000D02*
X12460000Y-8360000D01*
X12460000Y-8040000D02*
X12140000Y-8360000D01*
X12140000Y-12140000D02*
X12460000Y-12460000D01*
X12460000Y-12140000D02*
X12140000Y-12460000D01*
X18740000Y-8040000D02*
X19060000Y-8360000D01*
X19060000Y-8040000D02*
X18740000Y-8360000D01*
X18740000Y-12140000D02*
X19060000Y-12460000D01*
X19060000Y-12140000D02*
X18740000Y-12460000D01*
D11*
X12252619Y-12915476D02*
X12252619Y-12715476D01*
X12300238Y-12715476D01*
X12328809Y-12725000D01*
X12347857Y-12744048D01*
X12357381Y-12763095D01*
X12366905Y-12801190D01*
X12366905Y-12829762D01*
X12357381Y-12867857D01*
X12347857Y-12886905D01*
X12328809Y-12905952D01*
X12300238Y-12915476D01*
X12252619Y-12915476D01*
X12452619Y-12915476D02*
X12452619Y-12782143D01*
X12452619Y-12820238D02*
X12462143Y-12801190D01*
X12471667Y-12791667D01*
X12490714Y-12782143D01*
X12509762Y-12782143D01*
X12576428Y-12915476D02*
X12576428Y-12782143D01*
X12576428Y-12715476D02*
X12566905Y-12725000D01*
X12576428Y-12734524D01*
X12585952Y-12725000D01*
X12576428Y-12715476D01*
X12576428Y-12734524D01*
X12700238Y-12915476D02*
X12681190Y-12905952D01*
X12671667Y-12886905D01*
X12671667Y-12715476D01*
X12805000Y-12915476D02*
X12785952Y-12905952D01*
X12776428Y-12886905D01*
X12776428Y-12715476D01*
X13033571Y-12915476D02*
X13033571Y-12715476D01*
X13100238Y-12858333D01*
X13166905Y-12715476D01*
X13166905Y-12915476D01*
X13347857Y-12915476D02*
X13347857Y-12810714D01*
X13338333Y-12791667D01*
X13319286Y-12782143D01*
X13281190Y-12782143D01*
X13262143Y-12791667D01*
X13347857Y-12905952D02*
X13328809Y-12915476D01*
X13281190Y-12915476D01*
X13262143Y-12905952D01*
X13252619Y-12886905D01*
X13252619Y-12867857D01*
X13262143Y-12848809D01*
X13281190Y-12839286D01*
X13328809Y-12839286D01*
X13347857Y-12829762D01*
X13443095Y-12782143D02*
X13443095Y-12982143D01*
X13443095Y-12791667D02*
X13462143Y-12782143D01*
X13500238Y-12782143D01*
X13519286Y-12791667D01*
X13528809Y-12801190D01*
X13538333Y-12820238D01*
X13538333Y-12877381D01*
X13528809Y-12896428D01*
X13519286Y-12905952D01*
X13500238Y-12915476D01*
X13462143Y-12915476D01*
X13443095Y-12905952D01*
X13624048Y-12896428D02*
X13633571Y-12905952D01*
X13624048Y-12915476D01*
X13614524Y-12905952D01*
X13624048Y-12896428D01*
X13624048Y-12915476D01*
X13624048Y-12791667D02*
X13633571Y-12801190D01*
X13624048Y-12810714D01*
X13614524Y-12801190D01*
X13624048Y-12791667D01*
X13624048Y-12810714D01*
X11795000Y-13145000D02*
X11995000Y-13345000D01*
X11995000Y-13145000D02*
X11795000Y-13345000D01*
X12233571Y-13135476D02*
X12357381Y-13135476D01*
X12290714Y-13211667D01*
X12319286Y-13211667D01*
X12338333Y-13221190D01*
X12347857Y-13230714D01*
X12357381Y-13249762D01*
X12357381Y-13297381D01*
X12347857Y-13316428D01*
X12338333Y-13325952D01*
X12319286Y-13335476D01*
X12262143Y-13335476D01*
X12243095Y-13325952D01*
X12233571Y-13316428D01*
X12443095Y-13316428D02*
X12452619Y-13325952D01*
X12443095Y-13335476D01*
X12433571Y-13325952D01*
X12443095Y-13316428D01*
X12443095Y-13335476D01*
X12528809Y-13154524D02*
X12538333Y-13145000D01*
X12557381Y-13135476D01*
X12605000Y-13135476D01*
X12624048Y-13145000D01*
X12633571Y-13154524D01*
X12643095Y-13173571D01*
X12643095Y-13192619D01*
X12633571Y-13221190D01*
X12519286Y-13335476D01*
X12643095Y-13335476D01*
X12766905Y-13135476D02*
X12785952Y-13135476D01*
X12805000Y-13145000D01*
X12814524Y-13154524D01*
X12824048Y-13173571D01*
X12833571Y-13211667D01*
X12833571Y-13259286D01*
X12824048Y-13297381D01*
X12814524Y-13316428D01*
X12805000Y-13325952D01*
X12785952Y-13335476D01*
X12766905Y-13335476D01*
X12747857Y-13325952D01*
X12738333Y-13316428D01*
X12728809Y-13297381D01*
X12719286Y-13259286D01*
X12719286Y-13211667D01*
X12728809Y-13173571D01*
X12738333Y-13154524D01*
X12747857Y-13145000D01*
X12766905Y-13135476D01*
X12957381Y-13135476D02*
X12976428Y-13135476D01*
X12995476Y-13145000D01*
X13005000Y-13154524D01*
X13014524Y-13173571D01*
X13024048Y-13211667D01*
X13024048Y-13259286D01*
X13014524Y-13297381D01*
X13005000Y-13316428D01*
X12995476Y-13325952D01*
X12976428Y-13335476D01*
X12957381Y-13335476D01*
X12938333Y-13325952D01*
X12928809Y-13316428D01*
X12919286Y-13297381D01*
X12909762Y-13259286D01*
X12909762Y-13211667D01*
X12919286Y-13173571D01*
X12928809Y-13154524D01*
X12938333Y-13145000D01*
X12957381Y-13135476D01*
X13109762Y-13335476D02*
X13109762Y-13202143D01*
X13109762Y-13221190D02*
X13119286Y-13211667D01*
X13138333Y-13202143D01*
X13166905Y-13202143D01*
X13185952Y-13211667D01*
X13195476Y-13230714D01*
X13195476Y-13335476D01*
X13195476Y-13230714D02*
X13205000Y-13211667D01*
X13224048Y-13202143D01*
X13252619Y-13202143D01*
X13271667Y-13211667D01*
X13281190Y-13230714D01*
X13281190Y-13335476D01*
X13376428Y-13335476D02*
X13376428Y-13202143D01*
X13376428Y-13221190D02*
X13385952Y-13211667D01*
X13405000Y-13202143D01*
X13433571Y-13202143D01*
X13452619Y-13211667D01*
X13462143Y-13230714D01*
X13462143Y-13335476D01*
X13462143Y-13230714D02*
X13471667Y-13211667D01*
X13490714Y-13202143D01*
X13519286Y-13202143D01*
X13538333Y-13211667D01*
X13547857Y-13230714D01*
X13547857Y-13335476D01*
X13938333Y-13125952D02*
X13766905Y-13383095D01*
X14195476Y-13135476D02*
X14214524Y-13135476D01*
X14233571Y-13145000D01*
X14243095Y-13154524D01*
X14252619Y-13173571D01*
X14262143Y-13211667D01*
X14262143Y-13259286D01*
X14252619Y-13297381D01*
X14243095Y-13316428D01*
X14233571Y-13325952D01*
X14214524Y-13335476D01*
X14195476Y-13335476D01*
X14176428Y-13325952D01*
X14166905Y-13316428D01*
X14157381Y-13297381D01*
X14147857Y-13259286D01*
X14147857Y-13211667D01*
X14157381Y-13173571D01*
X14166905Y-13154524D01*
X14176428Y-13145000D01*
X14195476Y-13135476D01*
X14347857Y-13316428D02*
X14357381Y-13325952D01*
X14347857Y-13335476D01*
X14338333Y-13325952D01*
X14347857Y-13316428D01*
X14347857Y-13335476D01*
X14547857Y-13335476D02*
X14433571Y-13335476D01*
X14490714Y-13335476D02*
X14490714Y-13135476D01*
X14471667Y-13164048D01*
X14452619Y-13183095D01*
X14433571Y-13192619D01*
X14624048Y-13154524D02*
X14633571Y-13145000D01*
X14652619Y-13135476D01*
X14700238Y-13135476D01*
X14719286Y-13145000D01*
X14728809Y-13154524D01*
X14738333Y-13173571D01*
X14738333Y-13192619D01*
X14728809Y-13221190D01*
X14614524Y-13335476D01*
X14738333Y-13335476D01*
X14909762Y-13135476D02*
X14871667Y-13135476D01*
X14852619Y-13145000D01*
X14843095Y-13154524D01*
X14824048Y-13183095D01*
X14814524Y-13221190D01*
X14814524Y-13297381D01*
X14824048Y-13316428D01*
X14833571Y-13325952D01*
X14852619Y-13335476D01*
X14890714Y-13335476D01*
X14909762Y-13325952D01*
X14919286Y-13316428D01*
X14928809Y-13297381D01*
X14928809Y-13249762D01*
X14919286Y-13230714D01*
X14909762Y-13221190D01*
X14890714Y-13211667D01*
X14852619Y-13211667D01*
X14833571Y-13221190D01*
X14824048Y-13230714D01*
X14814524Y-13249762D01*
X15052619Y-13135476D02*
X15071667Y-13135476D01*
X15090714Y-13145000D01*
X15100238Y-13154524D01*
X15109762Y-13173571D01*
X15119286Y-13211667D01*
X15119286Y-13259286D01*
X15109762Y-13297381D01*
X15100238Y-13316428D01*
X15090714Y-13325952D01*
X15071667Y-13335476D01*
X15052619Y-13335476D01*
X15033571Y-13325952D01*
X15024048Y-13316428D01*
X15014524Y-13297381D01*
X15005000Y-13259286D01*
X15005000Y-13211667D01*
X15014524Y-13173571D01*
X15024048Y-13154524D01*
X15033571Y-13145000D01*
X15052619Y-13135476D01*
X15195476Y-13135476D02*
X15195476Y-13173571D01*
X15271667Y-13135476D02*
X15271667Y-13173571D01*
X15566905Y-13411667D02*
X15557381Y-13402143D01*
X15538333Y-13373571D01*
X15528809Y-13354524D01*
X15519286Y-13325952D01*
X15509762Y-13278333D01*
X15509762Y-13240238D01*
X15519286Y-13192619D01*
X15528809Y-13164048D01*
X15538333Y-13145000D01*
X15557381Y-13116428D01*
X15566905Y-13106905D01*
X15728809Y-13202143D02*
X15728809Y-13335476D01*
X15681190Y-13125952D02*
X15633571Y-13268809D01*
X15757381Y-13268809D01*
X15985952Y-13335476D02*
X15985952Y-13135476D01*
X16071667Y-13335476D02*
X16071667Y-13230714D01*
X16062143Y-13211667D01*
X16043095Y-13202143D01*
X16014524Y-13202143D01*
X15995476Y-13211667D01*
X15985952Y-13221190D01*
X16195476Y-13335476D02*
X16176428Y-13325952D01*
X16166905Y-13316428D01*
X16157381Y-13297381D01*
X16157381Y-13240238D01*
X16166905Y-13221190D01*
X16176428Y-13211667D01*
X16195476Y-13202143D01*
X16224048Y-13202143D01*
X16243095Y-13211667D01*
X16252619Y-13221190D01*
X16262143Y-13240238D01*
X16262143Y-13297381D01*
X16252619Y-13316428D01*
X16243095Y-13325952D01*
X16224048Y-13335476D01*
X16195476Y-13335476D01*
X16376428Y-13335476D02*
X16357381Y-13325952D01*
X16347857Y-13306905D01*
X16347857Y-13135476D01*
X16528809Y-13325952D02*
X16509762Y-13335476D01*
X16471667Y-13335476D01*
X16452619Y-13325952D01*
X16443095Y-13306905D01*
X16443095Y-13230714D01*
X16452619Y-13211667D01*
X16471667Y-13202143D01*
X16509762Y-13202143D01*
X16528809Y-13211667D01*
X16538333Y-13230714D01*
X16538333Y-13249762D01*
X16443095Y-13268809D01*
X16614524Y-13325952D02*
X16633571Y-13335476D01*
X16671667Y-13335476D01*
X16690714Y-13325952D01*
X16700238Y-13306905D01*
X16700238Y-13297381D01*
X16690714Y-13278333D01*
X16671667Y-13268809D01*
X16643095Y-13268809D01*
X16624048Y-13259286D01*
X16614524Y-13240238D01*
X16614524Y-13230714D01*
X16624048Y-13211667D01*
X16643095Y-13202143D01*
X16671667Y-13202143D01*
X16690714Y-13211667D01*
X16766905Y-13411667D02*
X16776428Y-13402143D01*
X16795476Y-13373571D01*
X16805000Y-13354524D01*
X16814524Y-13325952D01*
X16824048Y-13278333D01*
X16824048Y-13240238D01*
X16814524Y-13192619D01*
X16805000Y-13164048D01*
X16795476Y-13145000D01*
X16776428Y-13116428D01*
X16766905Y-13106905D01*
X17128810Y-13411667D02*
X17119286Y-13402143D01*
X17100238Y-13373571D01*
X17090714Y-13354524D01*
X17081190Y-13325952D01*
X17071667Y-13278333D01*
X17071667Y-13240238D01*
X17081190Y-13192619D01*
X17090714Y-13164048D01*
X17100238Y-13145000D01*
X17119286Y-13116428D01*
X17128810Y-13106905D01*
X17205000Y-13202143D02*
X17205000Y-13335476D01*
X17205000Y-13221190D02*
X17214524Y-13211667D01*
X17233571Y-13202143D01*
X17262143Y-13202143D01*
X17281190Y-13211667D01*
X17290714Y-13230714D01*
X17290714Y-13335476D01*
X17414524Y-13335476D02*
X17395476Y-13325952D01*
X17385952Y-13316428D01*
X17376429Y-13297381D01*
X17376429Y-13240238D01*
X17385952Y-13221190D01*
X17395476Y-13211667D01*
X17414524Y-13202143D01*
X17443095Y-13202143D01*
X17462143Y-13211667D01*
X17471667Y-13221190D01*
X17481190Y-13240238D01*
X17481190Y-13297381D01*
X17471667Y-13316428D01*
X17462143Y-13325952D01*
X17443095Y-13335476D01*
X17414524Y-13335476D01*
X17538333Y-13202143D02*
X17614524Y-13202143D01*
X17566905Y-13135476D02*
X17566905Y-13306905D01*
X17576429Y-13325952D01*
X17595476Y-13335476D01*
X17614524Y-13335476D01*
X17833571Y-13202143D02*
X17833571Y-13402143D01*
X17833571Y-13211667D02*
X17852619Y-13202143D01*
X17890714Y-13202143D01*
X17909762Y-13211667D01*
X17919286Y-13221190D01*
X17928810Y-13240238D01*
X17928810Y-13297381D01*
X17919286Y-13316428D01*
X17909762Y-13325952D01*
X17890714Y-13335476D01*
X17852619Y-13335476D01*
X17833571Y-13325952D01*
X18043095Y-13335476D02*
X18024048Y-13325952D01*
X18014524Y-13306905D01*
X18014524Y-13135476D01*
X18205000Y-13335476D02*
X18205000Y-13230714D01*
X18195476Y-13211667D01*
X18176429Y-13202143D01*
X18138333Y-13202143D01*
X18119286Y-13211667D01*
X18205000Y-13325952D02*
X18185952Y-13335476D01*
X18138333Y-13335476D01*
X18119286Y-13325952D01*
X18109762Y-13306905D01*
X18109762Y-13287857D01*
X18119286Y-13268809D01*
X18138333Y-13259286D01*
X18185952Y-13259286D01*
X18205000Y-13249762D01*
X18271667Y-13202143D02*
X18347857Y-13202143D01*
X18300238Y-13135476D02*
X18300238Y-13306905D01*
X18309762Y-13325952D01*
X18328810Y-13335476D01*
X18347857Y-13335476D01*
X18490714Y-13325952D02*
X18471667Y-13335476D01*
X18433571Y-13335476D01*
X18414524Y-13325952D01*
X18405000Y-13306905D01*
X18405000Y-13230714D01*
X18414524Y-13211667D01*
X18433571Y-13202143D01*
X18471667Y-13202143D01*
X18490714Y-13211667D01*
X18500238Y-13230714D01*
X18500238Y-13249762D01*
X18405000Y-13268809D01*
X18671667Y-13335476D02*
X18671667Y-13135476D01*
X18671667Y-13325952D02*
X18652619Y-13335476D01*
X18614524Y-13335476D01*
X18595476Y-13325952D01*
X18585952Y-13316428D01*
X18576429Y-13297381D01*
X18576429Y-13240238D01*
X18585952Y-13221190D01*
X18595476Y-13211667D01*
X18614524Y-13202143D01*
X18652619Y-13202143D01*
X18671667Y-13211667D01*
X18747857Y-13411667D02*
X18757381Y-13402143D01*
X18776429Y-13373571D01*
X18785952Y-13354524D01*
X18795476Y-13325952D01*
X18805000Y-13278333D01*
X18805000Y-13240238D01*
X18795476Y-13192619D01*
X18785952Y-13164048D01*
X18776429Y-13145000D01*
X18757381Y-13116428D01*
X18747857Y-13106905D01*
M02*
