M48
; DRILL file {KiCad (6.0.2)} date Thu Mar 17 13:32:31 2022
; FORMAT={-:-/ absolute / metric / decimal}
; #@! TF.CreationDate,2022-03-17T13:32:31+09:00
; #@! TF.GenerationSoftware,Kicad,Pcbnew,(6.0.2)
; #@! TF.FileFunction,Plated,1,2,PTH
FMAT,2
METRIC
; #@! TA.AperFunction,Plated,PTH,ComponentDrill
T1C0.700
; #@! TA.AperFunction,Plated,PTH,ComponentDrill
T2C0.750
; #@! TA.AperFunction,Plated,PTH,ComponentDrill
T3C0.800
; #@! TA.AperFunction,Plated,PTH,ComponentDrill
T4C1.000
%
G90
G05
T1
X129.54Y-114.3
X129.54Y-116.84
X129.54Y-119.38
X129.54Y-121.92
X132.08Y-114.3
X132.08Y-116.84
X132.08Y-119.38
X132.08Y-121.92
X134.62Y-114.3
X134.62Y-116.84
X134.62Y-119.38
X134.62Y-121.92
X137.16Y-114.3
X137.16Y-116.84
X137.16Y-119.38
X137.16Y-121.92
X139.7Y-114.3
X139.7Y-116.84
X139.7Y-119.38
X139.7Y-121.92
X142.24Y-114.3
X142.24Y-116.84
X142.24Y-119.38
X142.24Y-121.92
X144.78Y-114.3
X144.78Y-116.84
X144.78Y-119.38
X144.78Y-121.92
X147.32Y-114.3
X147.32Y-116.84
X147.32Y-119.38
X147.32Y-121.92
X149.86Y-114.3
X149.86Y-116.84
X149.86Y-119.38
X149.86Y-121.92
X152.4Y-114.3
X152.4Y-116.84
X152.4Y-119.38
X152.4Y-121.92
X154.94Y-114.3
X154.94Y-116.84
X154.94Y-119.38
X154.94Y-121.92
X157.48Y-114.3
X157.48Y-116.84
X157.48Y-119.38
X157.48Y-121.92
X160.02Y-114.3
X160.02Y-116.84
X160.02Y-119.38
X160.02Y-121.92
X162.56Y-114.3
X162.56Y-116.84
X162.56Y-119.38
X162.56Y-121.92
X165.1Y-114.3
X165.1Y-116.84
X165.1Y-119.38
X165.1Y-121.92
X167.64Y-114.3
X167.64Y-116.84
X167.64Y-119.38
X167.64Y-121.92
X170.18Y-114.3
X170.18Y-116.84
X170.18Y-119.38
X170.18Y-121.92
X172.72Y-106.68
X172.72Y-109.22
X172.72Y-111.76
X172.72Y-114.3
X172.72Y-116.84
X172.72Y-119.38
X172.72Y-121.92
X175.26Y-106.68
X175.26Y-109.22
X175.26Y-111.76
X175.26Y-114.3
X175.26Y-116.84
X175.26Y-119.38
X175.26Y-121.92
X177.8Y-106.68
X177.8Y-109.22
X177.8Y-111.76
X177.8Y-114.3
X177.8Y-116.84
X177.8Y-119.38
X177.8Y-121.92
X180.34Y-106.68
X180.34Y-109.22
X180.34Y-111.76
X180.34Y-114.3
X180.34Y-116.84
X180.34Y-119.38
X180.34Y-121.92
X182.88Y-106.68
X182.88Y-109.22
X182.88Y-111.76
X182.88Y-114.3
X182.88Y-116.84
X182.88Y-119.38
X182.88Y-121.92
T2
X166.06Y-108.4
X167.33Y-109.67
X168.6Y-108.4
T3
X129.545Y-81.035
X129.545Y-83.575
X129.545Y-86.115
X129.545Y-88.655
X129.545Y-91.195
X129.545Y-93.735
X129.545Y-96.275
X129.545Y-98.815
X129.545Y-101.355
X129.545Y-103.895
X129.545Y-106.435
X129.545Y-108.975
X144.785Y-81.035
X144.785Y-83.575
X144.785Y-86.115
X144.785Y-88.655
X144.785Y-91.195
X144.785Y-93.735
X144.785Y-96.275
X144.785Y-98.815
X144.785Y-101.355
X144.785Y-103.895
X144.785Y-106.435
X144.785Y-108.975
X153.99Y-99.2
X153.99Y-106.4
X161.61Y-99.2
X161.61Y-106.4
X166.0Y-99.125
X166.0Y-101.665
X173.62Y-99.125
X173.62Y-101.665
T4
X150.8Y-103.775
X150.8Y-106.315
X150.8Y-108.855
T4
G00X153.2Y-84.15
M15
G01X153.2Y-85.15
M16
G05
G00X158.25Y-81.35
M15
G01X157.25Y-81.35
M16
G05
G00X162.8Y-88.65
M15
G01X162.8Y-89.65
M16
G05
G00X170.2Y-84.15
M15
G01X170.2Y-85.15
M16
G05
G00X175.25Y-81.35
M15
G01X174.25Y-81.35
M16
G05
G00X179.8Y-88.65
M15
G01X179.8Y-89.65
M16
G05
T0
M30
