%TF.GenerationSoftware,KiCad,Pcbnew,(6.0.2)*%
%TF.CreationDate,2022-03-17T13:29:54+09:00*%
%TF.ProjectId,KiCad,4b694361-642e-46b6-9963-61645f706362,rev?*%
%TF.SameCoordinates,Original*%
%TF.FileFunction,Copper,L2,Bot*%
%TF.FilePolarity,Positive*%
%FSLAX46Y46*%
G04 Gerber Fmt 4.6, Leading zero omitted, Abs format (unit mm)*
G04 Created by KiCad (PCBNEW (6.0.2)) date 2022-03-17 13:29:54*
%MOMM*%
%LPD*%
G01*
G04 APERTURE LIST*
G04 Aperture macros list*
%AMRoundRect*
0 Rectangle with rounded corners*
0 $1 Rounding radius*
0 $2 $3 $4 $5 $6 $7 $8 $9 X,Y pos of 4 corners*
0 Add a 4 corners polygon primitive as box body*
4,1,4,$2,$3,$4,$5,$6,$7,$8,$9,$2,$3,0*
0 Add four circle primitives for the rounded corners*
1,1,$1+$1,$2,$3*
1,1,$1+$1,$4,$5*
1,1,$1+$1,$6,$7*
1,1,$1+$1,$8,$9*
0 Add four rect primitives between the rounded corners*
20,1,$1+$1,$2,$3,$4,$5,0*
20,1,$1+$1,$4,$5,$6,$7,0*
20,1,$1+$1,$6,$7,$8,$9,0*
20,1,$1+$1,$8,$9,$2,$3,0*%
G04 Aperture macros list end*
%TA.AperFunction,ComponentPad*%
%ADD10C,1.500000*%
%TD*%
%TA.AperFunction,ComponentPad*%
%ADD11C,1.600000*%
%TD*%
%TA.AperFunction,ComponentPad*%
%ADD12O,1.600000X1.600000*%
%TD*%
%TA.AperFunction,ComponentPad*%
%ADD13O,2.400000X1.600000*%
%TD*%
%TA.AperFunction,ComponentPad*%
%ADD14R,2.400000X1.600000*%
%TD*%
%TA.AperFunction,ComponentPad*%
%ADD15RoundRect,0.275000X0.275000X0.625000X-0.275000X0.625000X-0.275000X-0.625000X0.275000X-0.625000X0*%
%TD*%
%TA.AperFunction,ComponentPad*%
%ADD16R,1.100000X1.800000*%
%TD*%
%TA.AperFunction,ComponentPad*%
%ADD17R,1.700000X1.700000*%
%TD*%
%TA.AperFunction,ComponentPad*%
%ADD18O,1.700000X1.700000*%
%TD*%
%TA.AperFunction,ComponentPad*%
%ADD19O,2.500000X3.500000*%
%TD*%
%TA.AperFunction,ComponentPad*%
%ADD20O,3.500000X2.500000*%
%TD*%
%TA.AperFunction,Conductor*%
%ADD21C,0.800000*%
%TD*%
%TA.AperFunction,Conductor*%
%ADD22C,1.000000*%
%TD*%
G04 APERTURE END LIST*
D10*
%TO.P,,1*%
%TO.N,N/C*%
X160020000Y-114300000D03*
%TD*%
%TO.P,,1*%
%TO.N,N/C*%
X162560000Y-114300000D03*
%TD*%
%TO.P,,1*%
%TO.N,N/C*%
X147320000Y-114300000D03*
%TD*%
%TO.P,,1*%
%TO.N,N/C*%
X152400000Y-114300000D03*
%TD*%
%TO.P,,1*%
%TO.N,N/C*%
X149860000Y-114300000D03*
%TD*%
%TO.P,,1*%
%TO.N,N/C*%
X144780000Y-114300000D03*
%TD*%
%TO.P,,1*%
%TO.N,N/C*%
X157480000Y-114300000D03*
%TD*%
%TO.P,,1*%
%TO.N,N/C*%
X154940000Y-114300000D03*
%TD*%
%TO.P,,1*%
%TO.N,N/C*%
X134620000Y-114300000D03*
%TD*%
%TO.P,,1*%
%TO.N,N/C*%
X142240000Y-114300000D03*
%TD*%
%TO.P,,1*%
%TO.N,N/C*%
X139700000Y-114300000D03*
%TD*%
%TO.P,,1*%
%TO.N,N/C*%
X137160000Y-114300000D03*
%TD*%
%TO.P,,1*%
%TO.N,N/C*%
X132080000Y-114300000D03*
%TD*%
%TO.P,,1*%
%TO.N,N/C*%
X129540000Y-114300000D03*
%TD*%
D11*
%TO.P,R2,1*%
%TO.N,Net-(JP1-Pad2)*%
X153990000Y-106400000D03*
D12*
%TO.P,R2,2*%
%TO.N,Net-(Q1-Pad3)*%
X161610000Y-106400000D03*
%TD*%
D13*
%TO.P,U2,24,GND*%
%TO.N,GND*%
X129545000Y-108975000D03*
%TO.P,U2,23,CBUS0*%
%TO.N,unconnected-(U2-Pad23)*%
X129545000Y-106435000D03*
%TO.P,U2,22,CBUS1*%
%TO.N,unconnected-(U2-Pad22)*%
X129545000Y-103895000D03*
%TO.P,U2,21,VCC*%
%TO.N,VCC*%
X129545000Y-101355000D03*
%TO.P,U2,20,RESET#*%
%TO.N,unconnected-(U2-Pad20)*%
X129545000Y-98815000D03*
%TO.P,U2,19,3V3*%
%TO.N,unconnected-(U2-Pad19)*%
X129545000Y-96275000D03*
%TO.P,U2,18,CBUS3*%
%TO.N,unconnected-(U2-Pad18)*%
X129545000Y-93735000D03*
%TO.P,U2,17,PU1*%
%TO.N,unconnected-(U2-Pad17)*%
X129545000Y-91195000D03*
%TO.P,U2,16,PU2*%
%TO.N,unconnected-(U2-Pad16)*%
X129545000Y-88655000D03*
%TO.P,U2,15,VCC*%
%TO.N,unconnected-(U2-Pad15)*%
X129545000Y-86115000D03*
%TO.P,U2,14,VBUS*%
%TO.N,unconnected-(U2-Pad14)*%
X129545000Y-83575000D03*
%TO.P,U2,13,SLD*%
%TO.N,unconnected-(U2-Pad13)*%
X129545000Y-81035000D03*
%TO.P,U2,12,CBUS2*%
%TO.N,unconnected-(U2-Pad12)*%
X144785000Y-81035000D03*
%TO.P,U2,11,CBUS4*%
%TO.N,unconnected-(U2-Pad11)*%
X144785000Y-83575000D03*
%TO.P,U2,10,CTS#*%
%TO.N,unconnected-(U2-Pad10)*%
X144785000Y-86115000D03*
%TO.P,U2,9,DCD#*%
%TO.N,unconnected-(U2-Pad9)*%
X144785000Y-88655000D03*
%TO.P,U2,8,DSR#*%
%TO.N,unconnected-(U2-Pad8)*%
X144785000Y-91195000D03*
%TO.P,U2,7,GND*%
%TO.N,GND*%
X144785000Y-93735000D03*
%TO.P,U2,6,RI#*%
%TO.N,unconnected-(U2-Pad6)*%
X144785000Y-96275000D03*
%TO.P,U2,5,RXD*%
%TO.N,unconnected-(U2-Pad5)*%
X144785000Y-98815000D03*
%TO.P,U2,4,VCCIO*%
%TO.N,unconnected-(U2-Pad4)*%
X144785000Y-101355000D03*
%TO.P,U2,3,RTS#*%
%TO.N,RTS*%
X144785000Y-103895000D03*
%TO.P,U2,2,DTR#*%
%TO.N,DTR*%
X144785000Y-106435000D03*
D14*
%TO.P,U2,1,TXD*%
%TO.N,unconnected-(U2-Pad1)*%
X144785000Y-108975000D03*
%TD*%
D10*
%TO.P,,1*%
%TO.N,N/C*%
X175260000Y-106680000D03*
%TD*%
%TO.P,,1*%
%TO.N,N/C*%
X180340000Y-106680000D03*
%TD*%
%TO.P,,1*%
%TO.N,N/C*%
X177800000Y-106680000D03*
%TD*%
%TO.P,,1*%
%TO.N,N/C*%
X172720000Y-106680000D03*
%TD*%
%TO.P,,1*%
%TO.N,N/C*%
X182880000Y-106680000D03*
%TD*%
%TO.P,,1*%
%TO.N,N/C*%
X182880000Y-109220000D03*
%TD*%
%TO.P,,1*%
%TO.N,N/C*%
X172720000Y-109220000D03*
%TD*%
%TO.P,,1*%
%TO.N,N/C*%
X177800000Y-109220000D03*
%TD*%
%TO.P,,1*%
%TO.N,N/C*%
X180340000Y-109220000D03*
%TD*%
%TO.P,,1*%
%TO.N,N/C*%
X175260000Y-109220000D03*
%TD*%
%TO.P,,1*%
%TO.N,N/C*%
X165100000Y-114300000D03*
%TD*%
%TO.P,,1*%
%TO.N,N/C*%
X182880000Y-114300000D03*
%TD*%
%TO.P,,1*%
%TO.N,N/C*%
X182880000Y-111760000D03*
%TD*%
%TO.P,,1*%
%TO.N,N/C*%
X182880000Y-119380000D03*
%TD*%
%TO.P,,1*%
%TO.N,N/C*%
X182880000Y-116840000D03*
%TD*%
%TO.P,,1*%
%TO.N,N/C*%
X182880000Y-121920000D03*
%TD*%
%TO.P,,1*%
%TO.N,N/C*%
X172720000Y-121920000D03*
%TD*%
%TO.P,,1*%
%TO.N,N/C*%
X175260000Y-121920000D03*
%TD*%
%TO.P,,1*%
%TO.N,N/C*%
X167640000Y-121920000D03*
%TD*%
%TO.P,,1*%
%TO.N,N/C*%
X180340000Y-121920000D03*
%TD*%
%TO.P,,1*%
%TO.N,N/C*%
X165100000Y-121920000D03*
%TD*%
%TO.P,,1*%
%TO.N,N/C*%
X162560000Y-121920000D03*
%TD*%
%TO.P,,1*%
%TO.N,N/C*%
X157480000Y-121920000D03*
%TD*%
%TO.P,,1*%
%TO.N,N/C*%
X170180000Y-121920000D03*
%TD*%
%TO.P,,1*%
%TO.N,N/C*%
X177800000Y-121920000D03*
%TD*%
%TO.P,,1*%
%TO.N,N/C*%
X147320000Y-121920000D03*
%TD*%
%TO.P,,1*%
%TO.N,N/C*%
X160020000Y-121920000D03*
%TD*%
%TO.P,,1*%
%TO.N,N/C*%
X149860000Y-121920000D03*
%TD*%
%TO.P,,1*%
%TO.N,N/C*%
X144780000Y-121920000D03*
%TD*%
%TO.P,,1*%
%TO.N,N/C*%
X139700000Y-121920000D03*
%TD*%
%TO.P,,1*%
%TO.N,N/C*%
X137160000Y-121920000D03*
%TD*%
%TO.P,,1*%
%TO.N,N/C*%
X134620000Y-121920000D03*
%TD*%
%TO.P,,1*%
%TO.N,N/C*%
X152400000Y-121920000D03*
%TD*%
%TO.P,,1*%
%TO.N,N/C*%
X132080000Y-121920000D03*
%TD*%
%TO.P,,1*%
%TO.N,N/C*%
X142240000Y-121920000D03*
%TD*%
%TO.P,,1*%
%TO.N,N/C*%
X154940000Y-121920000D03*
%TD*%
%TO.P,,1*%
%TO.N,N/C*%
X129540000Y-121920000D03*
%TD*%
%TO.P,,1*%
%TO.N,N/C*%
X129540000Y-119380000D03*
%TD*%
%TO.P,,1*%
%TO.N,N/C*%
X129540000Y-116840000D03*
%TD*%
%TO.P,,1*%
%TO.N,N/C*%
X172720000Y-114300000D03*
%TD*%
%TO.P,,1*%
%TO.N,N/C*%
X175260000Y-114300000D03*
%TD*%
%TO.P,,1*%
%TO.N,N/C*%
X172720000Y-111760000D03*
%TD*%
%TO.P,,1*%
%TO.N,N/C*%
X177800000Y-111760000D03*
%TD*%
%TO.P,,1*%
%TO.N,N/C*%
X167640000Y-114300000D03*
%TD*%
%TO.P,,1*%
%TO.N,N/C*%
X180340000Y-114300000D03*
%TD*%
%TO.P,,1*%
%TO.N,N/C*%
X175260000Y-111760000D03*
%TD*%
%TO.P,,1*%
%TO.N,N/C*%
X170180000Y-114300000D03*
%TD*%
%TO.P,,1*%
%TO.N,N/C*%
X177800000Y-114300000D03*
%TD*%
%TO.P,,1*%
%TO.N,N/C*%
X180340000Y-111760000D03*
%TD*%
%TO.P,,1*%
%TO.N,N/C*%
X172720000Y-119380000D03*
%TD*%
%TO.P,,1*%
%TO.N,N/C*%
X175260000Y-119380000D03*
%TD*%
%TO.P,,1*%
%TO.N,N/C*%
X170180000Y-119380000D03*
%TD*%
%TO.P,,1*%
%TO.N,N/C*%
X172720000Y-116840000D03*
%TD*%
%TO.P,,1*%
%TO.N,N/C*%
X177800000Y-116840000D03*
%TD*%
%TO.P,,1*%
%TO.N,N/C*%
X165100000Y-119380000D03*
%TD*%
%TO.P,,1*%
%TO.N,N/C*%
X162560000Y-119380000D03*
%TD*%
%TO.P,,1*%
%TO.N,N/C*%
X160020000Y-119380000D03*
%TD*%
%TO.P,,1*%
%TO.N,N/C*%
X175260000Y-116840000D03*
%TD*%
%TO.P,,1*%
%TO.N,N/C*%
X170180000Y-116840000D03*
%TD*%
%TO.P,,1*%
%TO.N,N/C*%
X177800000Y-119380000D03*
%TD*%
%TO.P,,1*%
%TO.N,N/C*%
X157480000Y-119380000D03*
%TD*%
%TO.P,,1*%
%TO.N,N/C*%
X167640000Y-119380000D03*
%TD*%
%TO.P,,1*%
%TO.N,N/C*%
X180340000Y-119380000D03*
%TD*%
%TO.P,,1*%
%TO.N,N/C*%
X180340000Y-116840000D03*
%TD*%
%TO.P,,1*%
%TO.N,N/C*%
X160020000Y-116840000D03*
%TD*%
%TO.P,,1*%
%TO.N,N/C*%
X167640000Y-116840000D03*
%TD*%
%TO.P,,1*%
%TO.N,N/C*%
X165100000Y-116840000D03*
%TD*%
%TO.P,,1*%
%TO.N,N/C*%
X162560000Y-116840000D03*
%TD*%
%TO.P,,1*%
%TO.N,N/C*%
X157480000Y-116840000D03*
%TD*%
%TO.P,,1*%
%TO.N,N/C*%
X152400000Y-119380000D03*
%TD*%
%TO.P,,1*%
%TO.N,N/C*%
X149860000Y-119380000D03*
%TD*%
%TO.P,,1*%
%TO.N,N/C*%
X147320000Y-119380000D03*
%TD*%
%TO.P,,1*%
%TO.N,N/C*%
X144780000Y-119380000D03*
%TD*%
%TO.P,,1*%
%TO.N,N/C*%
X154940000Y-119380000D03*
%TD*%
%TO.P,,1*%
%TO.N,N/C*%
X147320000Y-116840000D03*
%TD*%
%TO.P,,1*%
%TO.N,N/C*%
X154940000Y-116840000D03*
%TD*%
%TO.P,,1*%
%TO.N,N/C*%
X152400000Y-116840000D03*
%TD*%
%TO.P,,1*%
%TO.N,N/C*%
X149860000Y-116840000D03*
%TD*%
%TO.P,,1*%
%TO.N,N/C*%
X144780000Y-116840000D03*
%TD*%
%TO.P,,1*%
%TO.N,N/C*%
X134620000Y-119380000D03*
%TD*%
%TO.P,,1*%
%TO.N,N/C*%
X142240000Y-119380000D03*
%TD*%
%TO.P,,1*%
%TO.N,N/C*%
X139700000Y-119380000D03*
%TD*%
%TO.P,,1*%
%TO.N,N/C*%
X137160000Y-119380000D03*
%TD*%
%TO.P,,1*%
%TO.N,N/C*%
X132080000Y-119380000D03*
%TD*%
%TO.P,,1*%
%TO.N,N/C*%
X142240000Y-116840000D03*
%TD*%
%TO.P,,1*%
%TO.N,N/C*%
X139700000Y-116840000D03*
%TD*%
%TO.P,,1*%
%TO.N,N/C*%
X137160000Y-116840000D03*
%TD*%
%TO.P,,1*%
%TO.N,N/C*%
X134620000Y-116840000D03*
%TD*%
%TO.P,,1*%
%TO.N,N/C*%
X132080000Y-116840000D03*
%TD*%
D15*
%TO.P,Q1,3,B*%
%TO.N,Net-(Q1-Pad3)*%
X166060000Y-108000000D03*
%TO.P,Q1,2,C*%
%TO.N,GND*%
X167330000Y-110070000D03*
D16*
%TO.P,Q1,1,E*%
%TO.N,Net-(Q1-Pad1)*%
X168600000Y-108000000D03*
%TD*%
D13*
%TO.P,U1,4*%
%TO.N,Net-(J1-PadT)*%
X173620000Y-99125000D03*
%TO.P,U1,3*%
%TO.N,Net-(J1-PadS)*%
X173620000Y-101665000D03*
%TO.P,U1,2*%
%TO.N,Net-(Q1-Pad1)*%
X166000000Y-101665000D03*
D14*
%TO.P,U1,1*%
%TO.N,Net-(R1-Pad2)*%
X166000000Y-99125000D03*
%TD*%
D12*
%TO.P,R1,2*%
%TO.N,Net-(R1-Pad2)*%
X161610000Y-99200000D03*
D11*
%TO.P,R1,1*%
%TO.N,VCC*%
X153990000Y-99200000D03*
%TD*%
D17*
%TO.P,JP1,1,A*%
%TO.N,RTS*%
X150800000Y-103775000D03*
D18*
%TO.P,JP1,2,C*%
%TO.N,Net-(JP1-Pad2)*%
X150800000Y-106315000D03*
%TO.P,JP1,3,B*%
%TO.N,DTR*%
X150800000Y-108855000D03*
%TD*%
D19*
%TO.P,J2,R*%
%TO.N,Net-(J1-PadR)*%
X179800000Y-89150000D03*
D20*
%TO.P,J2,S*%
%TO.N,Net-(J1-PadS)*%
X174750000Y-81350000D03*
D19*
%TO.P,J2,T*%
%TO.N,Net-(J1-PadT)*%
X170200000Y-84650000D03*
%TD*%
%TO.P,J1,R*%
%TO.N,Net-(J1-PadR)*%
X162800000Y-89150000D03*
D20*
%TO.P,J1,S*%
%TO.N,Net-(J1-PadS)*%
X157750000Y-81350000D03*
D19*
%TO.P,J1,T*%
%TO.N,Net-(J1-PadT)*%
X153200000Y-84650000D03*
%TD*%
D21*
%TO.N,Net-(Q1-Pad1)*%
X168600000Y-102000000D02*
X168265000Y-101665000D01*
X168600000Y-108400000D02*
X168600000Y-102000000D01*
X168265000Y-101665000D02*
X166000000Y-101665000D01*
%TO.N,GND*%
X167400000Y-111200000D02*
X167400000Y-109740000D01*
X167400000Y-109740000D02*
X167330000Y-109670000D01*
X137325000Y-109025000D02*
X139800000Y-111500000D01*
X139800000Y-111500000D02*
X167100000Y-111500000D01*
X167100000Y-111500000D02*
X167400000Y-111200000D01*
X137325000Y-108975000D02*
X137325000Y-109025000D01*
%TO.N,Net-(Q1-Pad3)*%
X165200000Y-108400000D02*
X166060000Y-108400000D01*
X163200000Y-106400000D02*
X165200000Y-108400000D01*
X161610000Y-106400000D02*
X163200000Y-106400000D01*
%TO.N,Net-(JP1-Pad2)*%
X153905000Y-106315000D02*
X153990000Y-106400000D01*
X150800000Y-106315000D02*
X153905000Y-106315000D01*
%TO.N,GND*%
X139765000Y-93735000D02*
X145625000Y-93735000D01*
X138300000Y-108000000D02*
X138300000Y-95200000D01*
X138300000Y-95200000D02*
X139765000Y-93735000D01*
X137325000Y-108975000D02*
X138300000Y-108000000D01*
X130385000Y-108975000D02*
X137325000Y-108975000D01*
%TO.N,Net-(J1-PadT)*%
X180700000Y-84600000D02*
X180650000Y-84650000D01*
X182300000Y-86200000D02*
X180700000Y-84600000D01*
X179475000Y-99125000D02*
X182300000Y-96300000D01*
X182300000Y-96300000D02*
X182300000Y-86200000D01*
X173620000Y-99125000D02*
X179475000Y-99125000D01*
X180650000Y-84650000D02*
X170200000Y-84650000D01*
D22*
%TO.N,Net-(J1-PadS)*%
X180035000Y-101665000D02*
X173620000Y-101665000D01*
X184000000Y-97700000D02*
X180035000Y-101665000D01*
X184000000Y-85100000D02*
X184000000Y-97700000D01*
X174750000Y-81350000D02*
X180250000Y-81350000D01*
X180250000Y-81350000D02*
X184000000Y-85100000D01*
D21*
%TO.N,DTR*%
X147135000Y-106435000D02*
X145625000Y-106435000D01*
X149555000Y-108855000D02*
X147135000Y-106435000D01*
X150800000Y-108855000D02*
X149555000Y-108855000D01*
%TO.N,RTS*%
X150800000Y-103775000D02*
X145745000Y-103775000D01*
X145745000Y-103775000D02*
X145625000Y-103895000D01*
%TO.N,Net-(R1-Pad2)*%
X161685000Y-99125000D02*
X161610000Y-99200000D01*
X166000000Y-99125000D02*
X161685000Y-99125000D01*
D22*
%TO.N,Net-(J1-PadR)*%
X162800000Y-89150000D02*
X179800000Y-89150000D01*
%TO.N,Net-(J1-PadT)*%
X170200000Y-84650000D02*
X153200000Y-84650000D01*
%TO.N,Net-(J1-PadS)*%
X157750000Y-81350000D02*
X174750000Y-81350000D01*
%TD*%
M02*
